<?xml version="1.0" encoding="UTF-8" standalone="no"?><!DOCTYPE svg PUBLIC "-//W3C//DTD SVG 1.1//EN" "http://www.w3.org/Graphics/SVG/1.1/DTD/svg11.dtd"><svg width="100%" height="100%" viewBox="0 0 121 13" version="1.1" xmlns="http://www.w3.org/2000/svg" xmlns:xlink="http://www.w3.org/1999/xlink" xml:space="preserve" xmlns:serif="http://www.serif.com/" style="fill-rule:evenodd;clip-rule:evenodd;stroke-linejoin:round;stroke-miterlimit:2;"><rect id="Artboard1" x="0" y="0" width="120.312" height="12.75" style="fill:none;"/><clipPath id="_clip1"><rect x="0" y="0" width="120.312" height="12.75"/></clipPath><g clip-path="url(#_clip1)"><g id="Floor"><path d="M-20.724,-2.365c0.373,-0.003 0.745,0 1.115,0.009c16.811,0.372 26.588,10.789 34.492,10.965c3.151,0.069 6.368,-0.571 9.513,-0.501c0.001,0 11.428,1.703 24.422,1.991c28.376,0.628 19.473,-3.031 25.549,-2.896c2.438,0.053 5.692,1.594 8.74,1.661c4.122,0.092 6.976,-2.947 10.707,-2.865c1.356,0.03 5.232,1.187 9.716,1.287c4.583,0.102 9.015,-0.969 12.621,-4.857c3.166,-3.414 7.603,-4.835 11.074,-8.087c4.382,-4.104 8.397,-10.228 14.643,-10.09c2.043,0.046 2.437,1.888 2.393,3.865c-0.323,14.567 -3.498,37.09 -4.699,49.596c-8.119,-0.859 -16.246,-1.291 -24.38,-1.471c-21.278,-0.471 -50.629,0.944 -63.32,0.663c-9.248,-0.204 -24.355,-5.899 -43.391,-6.32c-14.184,-0.314 -17.501,2.21 -25.418,2.035c-13.004,-0.288 -4.171,3.191 -3.521,-26.21c0.066,-2.916 -0.006,-5.838 -0.256,-8.775" style="fill-rule:nonzero;"/></g></g></svg>