<?xml version="1.0" encoding="UTF-8" standalone="no"?><!DOCTYPE svg PUBLIC "-//W3C//DTD SVG 1.1//EN" "http://www.w3.org/Graphics/SVG/1.1/DTD/svg11.dtd"><svg width="100%" height="100%" viewBox="0 0 163 114" version="1.1" xmlns="http://www.w3.org/2000/svg" xmlns:xlink="http://www.w3.org/1999/xlink" xml:space="preserve" xmlns:serif="http://www.serif.com/" style="fill-rule:evenodd;clip-rule:evenodd;stroke-linejoin:round;stroke-miterlimit:2;"><g id="Layer-1" serif:id="Layer 1"><g id="Floor"><path d="M-26.733,92.161c0.497,-0.004 0.993,0 1.487,0.011c22.415,0.496 35.45,14.386 45.989,14.62c4.201,0.093 8.491,-0.761 12.684,-0.668c0.002,0 15.237,2.271 32.563,2.655c37.834,0.838 25.964,-4.041 34.065,-3.861c3.251,0.071 7.59,2.125 11.653,2.215c5.497,0.122 9.302,-3.93 14.277,-3.82c1.807,0.04 6.975,1.582 12.954,1.715c6.111,0.136 12.02,-1.292 16.828,-6.476c4.222,-4.552 10.137,-6.446 14.766,-10.782c5.842,-5.472 11.196,-13.637 19.523,-13.453c2.725,0.061 3.25,2.517 3.191,5.153c-0.43,19.422 -4.664,49.453 -6.265,66.128c-10.825,-1.145 -21.662,-1.721 -32.507,-1.961c-28.371,-0.628 -67.505,1.258 -84.427,0.883c-12.33,-0.272 -32.473,-7.865 -57.854,-8.426c-18.912,-0.419 -23.335,2.946 -33.891,2.713c-17.338,-0.384 -5.561,4.255 -4.694,-34.946c0.087,-3.888 -0.008,-7.784 -0.342,-11.7" style="fill-rule:nonzero;"/></g></g></svg>