<?xml version="1.0" encoding="UTF-8" standalone="no"?><!DOCTYPE svg PUBLIC "-//W3C//DTD SVG 1.1//EN" "http://www.w3.org/Graphics/SVG/1.1/DTD/svg11.dtd"><svg width="100%" height="100%" viewBox="0 0 1441 332" version="1.1" xmlns="http://www.w3.org/2000/svg" xmlns:xlink="http://www.w3.org/1999/xlink" xml:space="preserve" xmlns:serif="http://www.serif.com/" style="fill-rule:evenodd;clip-rule:evenodd;stroke-linejoin:round;stroke-miterlimit:2;"><g id="greenery"><path d="M3.816,108.402l-3.816,-0.686l0,136.299l758.354,0l-81.674,-14.68l-20.76,-43.835l-13.79,34.015l-14.536,-30.504l0,-0.22l-4.54,10.396l-13.894,-33.338l-12.065,33.819l-8.636,-26.237l-2.453,8.739l-5.171,-12.33l0,-0.25l-5.8,15.091l-0.366,-0.936l0,-0.659l-2.092,7.848l-4.215,10.575l-11.753,-33.914l-2.505,7.375l-2.915,-12.732l-2.556,13.831l-6.933,-23.936l-7.453,30.176l-6.337,-18.455l0,-0.748l-8.891,37.893l-2.262,-0.407l-12.327,-61.178l-5.229,32.16l-8.667,-18.302l-16.101,39.713l-7.975,-1.434l-15.881,-33.325l0,-0.31l-9.463,21.668l-3.105,6.856l-10.113,-1.819l-11.492,-29.182l-7.887,20.431l0,0.31l-13.143,-39.933l-10.515,37.456l-8.938,-22.907l0,-0.929l-6.465,24.251l-14.986,-2.694l-11.671,-50.964l-6.157,33.327l-15.589,-55.263l-15.483,64.112l-7.153,-1.285l-15.576,-54.874l0,-0.498l-9.05,34.789l-4.157,15.409l-7.063,-1.27l-12.411,-52.903l-7.542,32.8l0,0.497l-12.569,-64.109l-10.056,60.134l-8.548,-36.777l0,-1.491l-8.13,51.199l-10.375,-1.864l-13.17,-96.547l-6.923,62.911l-15.82,-56.078l-18.603,77.031l-19.608,-69.079l0,-0.497l-9.051,34.788l-7.775,28.822l-15.856,-67.586l-7.542,32.8l0,0.497l-12.57,-64.109l-10.055,60.134l-8.547,-36.777l0,-1.491l-10.658,67.111l-5.559,-0.999l-15.458,-113.324l-11.929,108.402Z" style="fill:#cca29e;fill-rule:nonzero;"/><path d="M1124.35,49.874c-6.984,13.931 -6.531,30.829 -1.257,45.501c-2.934,-6.179 -11.49,-8.492 -17.512,-5.299c-6.025,3.191 -9.032,10.823 -7.661,17.531c-4.896,-6.414 -16.308,-5.781 -20.472,1.139c0.887,-10.282 -8.722,-19.596 -18.969,-20.131c-10.246,-0.534 -19.95,6.29 -24.9,15.329c-4.95,9.039 -5.736,19.88 -4.416,30.114c-1.797,-5.379 -7.976,-8.424 -13.587,-7.841c-5.611,0.583 -10.561,4.114 -14.248,8.408c-11.365,13.234 -11.049,34.757 -0.198,48.185c-1.64,1.469 -3.271,2.952 -4.901,4.432c-4.786,-1.856 -9.866,-2.955 -15.04,-3.404c-5.672,-6.815 -11.735,-8.774 -16.007,-6.876c-1.52,0.674 -2.968,1.476 -4.355,2.366c-2.546,-2.9 -5.836,-5.086 -9.62,-6.003c-11.82,-2.862 -23.977,5.824 -29.291,16.822c-0.547,1.133 -1.028,2.289 -1.47,3.457c-4.459,-6.695 -12.276,-11.273 -20.44,-9.956c-0.245,-6.057 -7.52,-10.835 -13.542,-8.895c2.331,-5.719 -1.916,-12.968 -8.245,-14.076c1.759,-3.079 0.723,-7.341 -2.277,-9.371c-3,-2.029 -7.561,-1.552 -10.028,1.048c1.014,-9.439 -7.813,-18.341 -17.72,-19.223c-9.908,-0.882 -19.65,5.258 -24.13,13.73c-4.48,8.472 -4.19,18.748 -0.806,27.671c-1.882,-3.758 -7.371,-5.164 -11.235,-3.223c-3.864,1.941 -5.794,6.583 -4.914,10.662c-3.141,-3.902 -10.462,-3.516 -13.134,0.693c0.57,-6.253 -5.595,-11.918 -12.168,-12.243c-6.573,-0.324 -12.798,3.825 -15.974,9.322c-2.872,4.97 -3.554,10.835 -3.034,16.514c-0.261,0.015 -0.522,0.027 -0.783,0.045c-1.716,-2.155 -4.84,-3.297 -7.732,-3.012c-3.599,0.353 -6.775,2.501 -9.14,5.112c-0.558,0.616 -1.067,1.265 -1.538,1.935c-7.587,2.88 -14.573,7.184 -20.319,12.72c-1.312,-1.101 -3.003,-1.854 -4.735,-2.082c-1.328,-0.176 -2.659,-0.105 -3.964,0.145c-6.291,-1.516 -13.139,-1.007 -20.126,-0.153c-0.16,-0.025 -0.321,-0.046 -0.48,-0.048c1.254,-0.691 2.216,-1.926 2.677,-3.26c0.66,-1.907 0.483,-3.98 0.161,-5.963c-0.29,-1.784 -0.733,-3.633 -1.965,-5.001c-1.233,-1.367 -3.482,-2.061 -5.075,-1.088c2.11,-2.408 1.686,-6.448 -0.882,-8.412c-2.567,-1.964 -6.795,-1.48 -8.803,1.007c0.963,-4.815 1.296,-10.462 -2.341,-13.926c-3.311,-3.153 -9.06,-3.12 -12.932,-0.615c-3.873,2.505 -5.995,6.954 -6.51,11.39c-0.384,3.303 0.02,6.625 0.706,9.896c-0.816,-1.065 -2.092,-1.873 -3.46,-2.116c-2.624,-0.464 -5.293,0.644 -7.456,2.133c-3.182,2.191 -5.736,5.4 -6.392,9.09c-0.451,2.536 0.142,5.273 1.632,7.382c-3.612,-0.542 -7.254,-0.902 -10.908,-1.073c-0.21,-2.827 -1.7,-5.584 -4.108,-7.263c-1.569,-1.093 -3.431,-1.734 -5.297,-2.247c-2.939,-0.807 -6.027,-1.338 -9.053,-0.925c-7.319,0.997 -12.318,7.109 -14.785,13.996c-6.624,1.769 -13.06,4.165 -19.17,7.176c-6.732,-2.685 -14.881,-2.466 -20.512,1.695c-1.815,-4.403 -4.768,-8.181 -8.987,-10.273c-2.958,-1.465 -6.27,-1.737 -9.45,-1.099c-17.298,-10.307 -39.927,-12.745 -58.752,-5.003c-1.921,-14.11 -6.819,-28.77 -18.331,-37.814c-7.158,-5.624 -17.401,-8.01 -26.284,-6.284c6.224,-19.882 2.927,-42.939 -9.902,-59.448c-3.577,-4.603 -7.98,-8.83 -13.478,-10.714c-4.217,-1.446 -8.783,-1.414 -13.228,-1.116c-6.819,0.458 -13.675,1.554 -20.208,3.558c-2.508,-1.187 -5.187,-2.071 -8.016,-2.573c-17.92,-3.179 -36.028,9.674 -41.39,25.844c-3.369,-1.466 -7.046,-2.227 -10.704,-2.1c-5.373,0.186 -10.528,2.07 -14.982,5.091c-2.651,-1.353 -5.302,-2.707 -7.954,-4.062c-5.609,-21.809 -25.626,-39.587 -48.824,-43.363c-8.107,-1.319 -16.44,-0.897 -24.402,1.006c-0.147,-4.734 -1.35,-9.225 -4.627,-12.517c-5.162,-5.185 -14.123,-5.132 -20.159,-1.012c-6.037,4.118 -9.345,11.436 -10.147,18.73c-0.572,5.198 -0.016,10.425 0.97,15.58c-0.07,0.088 -0.145,0.171 -0.216,0.258c-1.145,-1.38 -2.739,-2.441 -4.471,-2.905c-4.898,-11.087 -17.007,-19.259 -29.719,-19.185c-14.83,-14.651 -45.208,-8.392 -52.38,10.793c-14.053,-4.276 -30.659,0.739 -39.575,11.951c-6.482,-20.229 -21.062,-37.989 -40.092,-48.838c-7.313,-4.169 -15.728,-7.238 -24.199,-8.407l0,293.1l1440,0l0,-294.912c-9.785,-2.92 -21.478,0.032 -28.012,7.677c-7.706,9.014 -7.276,23.422 0.953,32.003c-13.956,-2.585 -28.226,-5.18 -42.303,-3.276c-14.076,1.903 -28.175,9.171 -34.135,21.488c-6.944,-5.107 -16.021,-6.686 -24.765,-7.301c-24.835,-1.749 -49.956,3.537 -72.127,14.325c-4.092,-5.393 -11.507,-8.463 -17.993,-6.258c3.633,-9.404 -2.986,-21.324 -12.852,-23.145c2.741,-5.064 1.127,-12.073 -3.55,-15.41c-4.675,-3.336 -11.786,-2.552 -15.633,1.722c1.582,-15.52 -12.178,-30.157 -27.621,-31.607c-0.993,-0.093 -1.983,-0.139 -2.97,-0.139c-14.391,0 -28.109,9.678 -34.644,22.714Z" style="fill:url(#_Linear1);fill-rule:nonzero;"/></g><defs><linearGradient id="_Linear1" x1="0" y1="0" x2="1" y2="0" gradientUnits="userSpaceOnUse" gradientTransform="matrix(0,96.1611,-96.1611,0,720,154.273)"><stop offset="0" style="stop-color:#e3948c;stop-opacity:1"/><stop offset="1" style="stop-color:#ffaa69;stop-opacity:1"/></linearGradient></defs></svg>