<?xml version="1.0" encoding="UTF-8" standalone="no"?><!DOCTYPE svg PUBLIC "-//W3C//DTD SVG 1.1//EN" "http://www.w3.org/Graphics/SVG/1.1/DTD/svg11.dtd"><svg width="100%" height="100%" viewBox="0 0 817 370" version="1.1" xmlns="http://www.w3.org/2000/svg" xmlns:xlink="http://www.w3.org/1999/xlink" xml:space="preserve" xmlns:serif="http://www.serif.com/" style="fill-rule:evenodd;clip-rule:evenodd;stroke-linejoin:round;stroke-miterlimit:2;"><g id="frontgrass"><g><path d="M116.777,77.596c-2.584,1.759 -5.155,3.538 -7.708,5.339c-20.838,14.702 -40.484,30.95 -58.933,48.494c-17.9,17.022 -34.695,35.224 -50.136,54.464l0,7.882c2.567,-3.388 5.158,-6.76 7.801,-10.093c15.741,-19.849 32.827,-38.655 51.135,-56.219c18.318,-17.571 37.843,-33.99 58.341,-49.02c0.503,-0.369 0.033,-1.209 -0.5,-0.847" style="fill:#30082c;fill-rule:nonzero;"/><path d="M129.095,76.781c2.081,-2.796 6.025,-3.316 9.526,-3.574c28.869,-2.129 58.499,-2.205 86.021,6.678c-18.232,0.121 -35.495,10.974 -53.625,9.083c-14.54,-1.515 -27.344,-11.08 -41.922,-12.187" style="fill:#30082c;fill-rule:nonzero;"/><path d="M90.665,27.317c-0.103,-6.22 -0.429,-12.411 -1.662,-18.505c5.594,10.17 11.233,20.448 14.375,31.6c3.763,13.36 3.767,27.736 0.011,41.1c-0.658,-1.446 -1.405,-2.847 -2.189,-4.229c-6.132,-2.341 -10.649,-8.11 -12.829,-14.335c-2.405,-6.874 -2.442,-14.306 -2.44,-21.581c0.003,-7.274 -0.006,-14.702 -2.361,-21.593c2.588,2.305 4.956,4.835 7.095,7.543" style="fill:#30082c;fill-rule:nonzero;"/><path d="M6.255,72.455c-0.419,-1.07 -0.804,-2.154 -1.124,-3.267c0.495,1.053 0.861,2.147 1.124,3.267" style="fill:#30082c;fill-rule:nonzero;"/><path d="M84.781,369.261c-0.151,-1.983 -2.007,-3.485 -4.182,-4.493c1.204,1.436 2.331,2.935 3.38,4.493l0.802,0Z" style="fill:#30082c;fill-rule:nonzero;"/><path d="M121.234,56.843c2.27,-3.942 5.711,-7.086 9.258,-9.964c21.335,-17.311 48.701,-27.206 76.293,-27.583c-10.539,1.685 -20.276,7.811 -26.288,16.537c-4.311,6.258 -6.722,13.666 -11.219,19.795c-10.776,14.685 -31.971,19.02 -49.684,14.295c-1.602,-4.251 -0.63,-9.137 1.64,-13.08" style="fill:#30082c;fill-rule:nonzero;"/><path d="M171.457,109.479l-0.062,0c3.224,1.759 6.184,3.988 7.599,7.272c-9.191,-2.016 -18.578,-3.156 -27.989,-3.399c-7.882,-0.203 -16.011,0.181 -23.38,-2.594c-7.37,-2.774 -13.839,-9.843 -12.838,-17.58c1.67,0.171 3.336,0.378 4.999,0.598c-2.91,-2.019 -5.82,-4.038 -8.731,-6.057c4.24,-1.399 8.804,-1.393 13.273,-1.361c11.429,0.079 22.97,0.247 34.086,2.876c6.108,1.445 12.019,3.62 17.777,6.102c10.723,4.624 20.965,10.335 30.516,17.016c-11.363,-3.265 -23.417,-2.877 -35.25,-2.873" style="fill:#30082c;fill-rule:nonzero;"/><path d="M73.389,29.739c3.958,12.525 7.674,25.347 7.664,38.47c-0.012,15.158 -5.008,29.904 -11.297,43.727c-0.422,0.927 -1.23,2.029 -2.202,1.7c0.577,-1.926 0.617,-3.874 0.365,-5.829c-3.632,5.68 -10.993,9.427 -17.335,7.069c-5.782,-2.151 -8.977,-8.679 -8.866,-14.788c0.111,-6.11 2.887,-11.852 6.015,-17.121c3.128,-5.27 6.699,-10.365 8.685,-16.151c2.35,-6.846 2.298,-14.531 -0.465,-21.225c4.288,6.123 7.767,12.793 10.357,19.788c0.226,-0.876 0.455,-1.749 0.692,-2.616c2.964,-10.862 6.619,-21.776 6.387,-33.024" style="fill:#30082c;fill-rule:nonzero;"/><path d="M28.137,75.968c2.391,4.21 4.765,8.477 6.204,13.092c1.26,4.035 1.779,8.261 2.068,12.474c1.055,15.318 -0.874,30.831 -5.647,45.44c-1.001,-0.926 -2.019,-1.841 -3.024,-2.768c-0.573,1.689 -1.383,3.312 -2.692,4.516c-2.84,2.609 -7.47,2.558 -10.847,0.677c-3.377,-1.881 -5.673,-5.224 -7.314,-8.697c-4.174,-8.836 -4.784,-18.934 -4.02,-28.656c0.762,-9.724 2.819,-19.31 3.716,-29.022c0.324,-3.516 0.473,-7.166 -0.326,-10.569c2.112,5.388 5.368,10.275 8.655,15.164c-1.042,-13.082 -2.761,-26.112 -5.163,-39.018c7.305,8.258 12.957,17.798 18.39,27.367" style="fill:#30082c;fill-rule:nonzero;"/><path d="M25.236,253.614c0.021,0.532 0.037,1.065 0.055,1.596c-0.629,0.066 -1.261,0.122 -1.897,0.163c0.614,-0.587 1.226,-1.176 1.842,-1.759m20.304,-18.228c0.297,4.764 -0.104,9.565 -1.19,14.215c-3.258,1.514 -6.587,2.816 -10.009,3.809c-0.691,-2.079 -1.432,-4.143 -2.209,-6.194c4.401,-4.017 8.871,-7.96 13.408,-11.83m-2.924,-17.523c11.68,-8.563 25.703,-13.266 39.438,-17.537c0.229,-0.007 0.458,-0.013 0.687,-0.018c-9.341,6.232 -18.467,12.79 -27.349,19.658c0.169,-0.295 0.337,-0.59 0.491,-0.891c-3.985,0.253 -7.899,1.476 -11.808,2.211c-2.17,0.407 -3.187,-2.157 -1.459,-3.423m28.185,-34.098c3.178,-1.16 6.076,-2.945 9.089,-4.479c16.287,-8.294 35.282,-9.031 53.666,-8.333c-7.004,3.458 -13.927,7.081 -20.746,10.903c-4.726,2.649 -9.4,5.392 -14.027,8.211c-6.068,-0.365 -12.153,-0.427 -18.226,-0.185c-3.926,-1.689 -7.909,-3.247 -12.061,-4.253c-0.889,-0.215 -1.785,-0.397 -2.683,-0.564c1.697,-0.295 3.367,-0.708 4.988,-1.3m29.992,97.122c-0.012,0.299 -0.027,0.597 -0.015,0.898c-0.677,0.188 -1.354,0.376 -2.032,0.559c0.68,-0.489 1.364,-0.971 2.047,-1.457m-27.843,57.75c0.373,-0.072 0.749,-0.139 1.123,-0.212c0.034,0.014 0.068,0.023 0.102,0.037c2.876,1.082 5.587,2.48 8.162,4.103c-2.961,-0.095 -5.924,-0.181 -8.884,-0.249c-2.053,-0.048 -2.675,-3.259 -0.503,-3.679m-72.95,30.624l2.255,0c0.305,-0.351 0.747,-0.609 1.322,-0.678c6.827,-0.816 13.675,-1.454 20.524,-2.067c4.284,0.753 8.538,1.671 12.75,2.745l15.946,0c-1.89,-1.735 -3.875,-3.37 -5.952,-4.895c1.139,-0.122 2.278,-0.241 3.416,-0.371c-1.783,-0.374 -3.573,-0.713 -5.369,-1.018c-3.575,-2.457 -7.375,-4.621 -11.314,-6.517c2.918,-0.571 5.844,-1.08 8.774,-1.558c11.711,2.924 23.422,5.85 35.133,8.774c1.012,0.253 2.096,0.62 3.114,1.091c-3.104,-3.7 -6.698,-6.996 -10.61,-9.902c7.487,2.72 14.439,6.972 19.077,13.31c-0.978,-2.478 -3.022,-4.366 -5.003,-6.166c-4.023,-3.655 -8.05,-7.312 -12.169,-10.861c6.37,-0.651 12.747,-1.255 19.12,-1.894c3.394,3.099 6.535,6.513 9.483,10.004c-0.875,-3.631 -2.066,-7.181 -3.538,-10.613c1.473,-0.156 2.946,-0.318 4.418,-0.482c3.455,1.789 6.814,3.758 10.057,5.903c-1.494,-2.181 -2.987,-4.373 -4.504,-6.547c4.872,-0.587 9.736,-1.233 14.584,-1.995c-5.745,-0.79 -11.516,-1.373 -17.299,-1.82c-2.343,-3.221 -4.786,-6.361 -7.43,-9.317c2.622,-0.431 5.245,-0.851 7.87,-1.261c0.581,0.65 1.166,1.298 1.732,1.962c-0.257,-0.708 -0.53,-1.41 -0.814,-2.107c1.878,-0.292 3.757,-0.578 5.637,-0.86c12.176,8.89 25.967,16.227 34.835,28.272c-3.879,-10.887 -8.58,-21.622 -15.266,-31.047c4.111,-0.551 8.224,-1.09 12.339,-1.608c2.015,-0.253 4.032,-0.487 6.05,-0.725c10.209,2.897 20.34,7.049 27.633,14.624c-4.872,-5.836 -10.367,-11.148 -16.341,-15.873c18.291,-1.863 36.664,-3.002 55.043,-3.111c2.948,-0.017 5.932,-0.196 8.921,-0.357c-0.004,-0.055 -0.009,-0.11 -0.012,-0.166c-0.676,-0.155 -1.355,-0.3 -2.038,-0.424c-8.205,-1.483 -16.481,-2.593 -24.773,-3.473c-17.761,-1.884 -35.71,-3.042 -53.661,-3.368c-12.319,-6.687 -25.865,-11.159 -39.802,-12.949c-0.526,1.644 -0.456,3.391 0.029,5.049c-2.793,-1.192 -5.687,-2.147 -8.676,-2.798c-1.661,-0.36 -3.772,-0.456 -4.668,0.974c-0.495,0.792 -0.421,1.802 -0.243,2.716c0.404,2.075 1.248,4.024 2.317,5.861c-1.567,-1.598 -3.22,-3.115 -4.961,-4.526c-3.334,-2.703 -7.58,-5.166 -11.738,-4.041c-0.404,0.109 -0.823,0.268 -1.075,0.6c-0.539,0.708 -0.034,1.716 0.53,2.407c2.103,2.577 4.989,4.389 7.743,6.273c1.134,0.776 2.253,1.574 3.359,2.39c-4.007,0.372 -8.006,0.81 -11.983,1.355c-0.372,0.051 -0.747,0.105 -1.123,0.16c-0.943,-0.304 -1.896,-0.571 -2.856,-0.801c-1.833,-1.193 -3.721,-2.304 -5.666,-3.315c-2.465,-1.281 -5.258,-2.42 -7.972,-2.466c1.108,-1.228 2.314,-2.373 3.576,-3.46c6.441,-2.381 13.047,-4.331 19.928,-5.683c15.114,-2.968 30.496,-4.299 45.466,-8.016c0.52,-0.129 0.291,-0.868 -0.218,-0.781c-17.413,2.941 -35.212,3.094 -52.523,6.729c-0.95,0.2 -1.894,0.413 -2.834,0.637c4.128,-2.673 8.356,-5.191 12.483,-7.864c2.827,-0.891 5.382,-2.673 7.416,-4.862c-0.461,1.36 -0.572,2.826 -0.673,4.265c-0.08,1.126 -0.079,2.445 0.817,3.147c1.45,-3.413 2.903,-6.908 3.908,-10.474c0.416,-0.299 0.834,-0.597 1.25,-0.896c2.241,4.162 6.809,6.888 11.528,7.863c5.163,1.068 10.522,0.353 15.709,-0.597c3.108,-0.57 6.291,-1.258 8.906,-3.016c2.811,-1.889 4.687,-4.82 6.792,-7.46c4.024,-5.047 9.642,-9.453 16.137,-9.711c-3.556,-1.233 -7.223,-2.477 -10.938,-2.841c0.613,-0.452 1.215,-0.919 1.798,-1.419c3.482,-2.989 6.191,-6.749 8.715,-10.565c3.645,-5.509 6.968,-11.226 9.974,-17.1c2.426,-1.386 4.862,-2.752 7.323,-4.069c11.216,-6.002 22.872,-10.62 34.895,-14.42c-5.068,-1.477 -10.691,-2.042 -15.797,-2.049c-45.887,-0.061 -90.673,11.879 -134.676,25.293c-0.27,-1.289 -0.576,-2.575 -0.923,-3.855c0.048,1.417 -0.028,2.814 -0.196,4.197c-1.017,0.311 -2.034,0.622 -3.05,0.934c-0.302,0.169 -0.607,0.334 -0.91,0.503c-1.386,-3.926 -2.907,-7.812 -4.473,-11.675c7.855,-6.665 15.906,-13.112 24.152,-19.325c6.647,-5.01 13.429,-9.87 20.318,-14.59c0.274,0.027 0.547,0.043 0.82,0.074c5.567,0.643 11.03,2.147 16.63,2.376c-3.96,-2.165 -8.01,-4.161 -12.102,-6.072c1.407,-0.94 2.819,-1.874 4.235,-2.802c2.715,-1.077 5.424,-2.173 8.149,-3.229c-0.901,-0.104 -1.803,-0.196 -2.705,-0.287c21.317,-13.612 43.606,-25.801 66.532,-36.339l1.648,4.076l46.584,6.67l22.373,3.335l-2.058,-2.298l1.828,1.881l14.021,-24.329l-2.792,-5.29l17.034,-1.548c0.139,0.117 0.297,0.213 0.461,0.294c0.557,0.275 1.121,0.544 1.714,0.736c0.261,0.084 0.534,0.154 0.809,0.134c0.318,-0.024 0.616,-0.165 0.886,-0.336c0.445,-0.28 0.838,-0.642 1.152,-1.062c0.045,-0.062 0.092,-0.13 0.089,-0.206c-0.005,-0.115 -0.114,-0.193 -0.215,-0.25c-0.652,-0.368 -1.383,-0.571 -2.106,-0.772c-0.255,-0.071 -0.514,-0.142 -0.78,-0.141c-0.332,0.001 -0.651,0.115 -0.963,0.229c-0.285,0.102 -0.568,0.205 -0.852,0.308c-0.146,0.053 -0.3,0.111 -0.397,0.231c-0.159,0.196 -0.109,0.499 0.046,0.697c0.006,0.009 0.018,0.015 0.024,0.022l-17.265,0.975l-5.769,-10.93l6.222,-2.403c0.629,0.408 1.284,0.78 1.938,1.148c0.174,0.097 0.355,0.199 0.555,0.208c0.148,0.007 0.294,-0.036 0.435,-0.078c0.294,-0.09 0.588,-0.178 0.882,-0.267c1.109,-0.336 2.354,-0.789 2.79,-1.852c-0.825,-0.576 -1.649,-1.151 -2.473,-1.727c-0.482,-0.336 -0.968,-0.675 -1.511,-0.906c-0.099,-0.042 -0.204,-0.08 -0.312,-0.075c-0.12,0.007 -0.23,0.068 -0.335,0.128l-3.688,2.107c0.491,0.458 1.032,0.855 1.593,1.227l-6.265,2.169l-7.226,-13.693l-20.235,-5.719c-0.622,0.096 -1.251,0.187 -1.887,0.29c-0.096,0.016 -0.191,0.033 -0.286,0.049c-0.335,0.056 -0.669,0.112 -1.003,0.17l-46.696,41.779l1.853,4.582c-12.677,4.931 -25.143,10.35 -37.341,16.316c-0.264,-0.173 -0.539,-0.325 -0.821,-0.457c0.27,0.154 0.543,0.306 0.813,0.461c-0.395,0.193 -0.786,0.396 -1.18,0.589c-3.98,-0.451 -7.931,-1.086 -11.865,-1.833c2.217,-0.091 4.435,-0.146 6.655,-0.128c1.897,0.017 3.894,0.118 5.577,0.911c-12.042,-6.89 -24.873,-12.804 -38.306,-16.08c19.427,-1.441 38.826,-9.301 58.005,-5.709c-6.456,-4.838 -13.322,-9.132 -20.494,-12.855c6.016,-0.444 12.043,-0.729 18.075,-0.838c6.169,-0.112 12.542,-0.008 18.193,2.44c-9.786,-8.02 -21.775,-13.066 -34.075,-16.23c-12.299,-3.165 -24.985,-4.537 -37.619,-5.899c-5.155,-0.557 -10.411,-1.109 -15.491,-0.075c-4.241,0.862 -8.243,2.839 -11.489,5.671c0.399,0.303 0.781,0.624 1.158,0.952c-0.495,0.294 -0.981,0.603 -1.449,0.935c-3.132,2.227 -5.829,5.341 -6.582,9.081c-0.763,3.789 0.55,7.702 2.378,11.116c1.762,3.293 4.095,6.396 7.288,8.372c0.159,0.098 0.325,0.18 0.486,0.271c-4.33,-0.079 -8.667,0.029 -12.999,0.07c-3.443,0.031 -6.897,0.017 -10.314,0.431c-4.785,0.58 -9.421,1.988 -14.028,3.39c2.904,1.5 4.98,4.01 6.997,6.615c-1.9,0.183 -3.78,0.489 -5.646,1.051c-0.469,0.141 -0.935,0.286 -1.401,0.431c-1.224,0.593 -2.428,1.226 -3.602,1.91c-1.826,1.065 -3.66,2.313 -4.658,4.164c-1.49,2.761 -0.776,6.128 -0.027,9.169c0.337,1.364 0.718,2.808 1.746,3.778c0.448,0.423 0.987,0.717 1.563,0.941c-2.066,0.099 -4.124,0.292 -6.172,0.616c-8.192,1.296 -16.369,4.975 -21.164,11.674c6.889,1.947 13.835,3.898 20.844,5.398c-8.768,3.12 -17.294,6.9 -25.472,11.317l0,157.417Z" style="fill:#30082c;fill-rule:nonzero;"/><path d="M154.551,304.876c-9.358,-2.148 -18.546,-6.587 -24.329,-14.174c8.399,-1.217 16.918,-1.203 25.369,-0.33c-0.083,-0.11 -0.171,-0.216 -0.251,-0.327c9.677,-1.207 19.509,0.626 28.816,3.514c9.307,2.889 18.245,6.826 27.458,9.993c-4.266,-1.165 -8.611,-2.046 -12.997,-2.643c5.28,1.844 10.527,3.791 15.761,5.752c4.366,1.636 8.839,3.343 12.314,6.428c-14.35,-2.794 -28.897,-4.606 -43.5,-5.419c-9.592,-0.533 -19.282,-0.646 -28.641,-2.794" style="fill:#30082c;fill-rule:nonzero;"/><path d="M191.52,171.858c1.261,1.151 2.609,2.257 3.938,3.385c-1.153,-4.188 -1.734,-8.571 -2.828,-12.807c-1.121,-2.963 -2.401,-5.856 -3.856,-8.68c-1.289,-2.028 -2.667,-3.992 -4.116,-5.873c-4.465,-5.801 -9.686,-10.957 -15.557,-15.289c-1.897,-1.172 -3.871,-2.237 -5.945,-3.189c-1.751,-0.803 -3.577,-1.739 -5.453,-2.569c-0.177,0.108 -0.34,0.238 -0.477,0.391c2.444,7.51 6.021,14.584 10.751,21.006c6.613,8.981 15.338,16.135 23.543,23.625" style="fill:#30082c;fill-rule:nonzero;"/><path d="M157.449,186.048c-2.204,-0.228 -4.413,-0.418 -6.618,-0.587c4.439,3.589 8.634,7.472 12.55,11.615c2.796,2.957 5.474,6.07 8.761,8.484c4.32,3.171 9.62,5.019 14.996,5.224c1.864,0.072 3.775,-0.058 5.495,-0.769c1.711,-0.706 3.132,-1.942 4.691,-2.935c1.558,-0.993 3.421,-1.769 5.233,-1.383c-2.773,-3.492 -6.145,-6.443 -9.876,-8.906c1.638,0.429 3.312,0.942 4.875,1.647c-4.653,-6.21 -10.989,-10.551 -17.964,-13.743c-3.486,-1.932 -7.275,-3.332 -11.307,-4.224c-0.208,-0.045 -0.418,-0.084 -0.628,-0.128c-0.303,-0.089 -0.607,-0.177 -0.911,-0.263c-0.239,-0.068 -0.467,-0.077 -0.681,-0.047c-7.872,-1.419 -15.978,-1.36 -23.787,-3.132c-0.364,-0.083 -0.695,-0.063 -0.982,0.031c5.132,3.057 10.269,6.105 15.591,8.832c0.187,0.096 0.375,0.188 0.562,0.284" style="fill:#30082c;fill-rule:nonzero;"/><path d="M167.102,171.776c3.571,1.742 7.3,3.202 11.027,4.582c0.736,0.273 1.468,0.557 2.2,0.843c4.244,4.275 9.219,7.878 14.977,9.618c-2.985,-6.535 -7.772,-12.14 -13.183,-16.912c-5.412,-4.772 -11.463,-8.771 -17.493,-12.752c2.232,2.846 4.32,5.802 6.445,8.73c-2.33,-1.793 -4.726,-3.494 -7.231,-5.038c-4.399,-2.713 -9.406,-4.735 -14.484,-5.785c-0.853,-0.177 -1.717,-0.333 -2.584,-0.489c0.012,0.239 0.11,0.484 0.328,0.7c6.204,6.14 12.016,12.606 19.998,16.503" style="fill:#30082c;fill-rule:nonzero;"/><path d="M437.488,146.201c-2.732,0.202 -5.809,0.608 -7.433,2.79c11.375,0.863 21.366,8.327 32.712,9.509c14.148,1.475 27.618,-6.994 41.844,-7.088c-21.476,-6.931 -44.595,-6.871 -67.123,-5.211" style="fill:#30082c;fill-rule:nonzero;"/><path d="M398.277,138.196c1.701,4.857 5.226,9.359 10.011,11.186c0.612,1.079 1.195,2.172 1.708,3.298c2.93,-10.426 2.927,-21.644 -0.009,-32.069c-2.451,-8.702 -6.851,-16.723 -11.216,-24.658c0.961,4.755 1.216,9.585 1.297,14.439c-1.67,-2.112 -3.518,-4.087 -5.537,-5.886c1.838,5.378 1.844,11.174 1.842,16.85c-0.002,5.676 0.027,11.476 1.904,16.84" style="fill:#30082c;fill-rule:nonzero;"/><path d="M368.791,178.717c4.949,1.84 10.692,-1.084 13.527,-5.517c0.197,1.526 0.166,3.046 -0.285,4.549c0.758,0.257 1.389,-0.603 1.718,-1.327c4.908,-10.786 8.806,-22.292 8.815,-34.121c0.008,-10.239 -2.89,-20.245 -5.98,-30.018c0.181,8.777 -2.67,17.293 -4.983,25.768c-0.185,0.677 -0.364,1.358 -0.54,2.042c-2.022,-5.457 -4.737,-10.664 -8.082,-15.441c2.155,5.223 2.196,11.22 0.363,16.563c-1.551,4.515 -4.337,8.49 -6.777,12.603c-2.442,4.111 -4.607,8.592 -4.695,13.359c-0.087,4.767 2.407,9.862 6.919,11.54" style="fill:#30082c;fill-rule:nonzero;"/><path d="M334.197,145.607c-0.204,-0.871 -0.488,-1.723 -0.874,-2.542c0.25,0.867 0.548,1.71 0.874,2.542" style="fill:#30082c;fill-rule:nonzero;"/><path d="M340.4,205.656c2.635,1.467 6.248,1.508 8.463,-0.529c1.022,-0.939 1.654,-2.205 2.1,-3.524c0.785,0.725 1.579,1.439 2.361,2.16c3.725,-11.4 5.229,-23.504 4.407,-35.458c-0.227,-3.288 -0.631,-6.585 -1.614,-9.733c-1.123,-3.602 -2.976,-6.932 -4.842,-10.216c-4.239,-7.466 -8.649,-14.911 -14.35,-21.355c1.875,10.073 3.217,20.242 4.03,30.453c-2.57,-3.817 -5.108,-7.637 -6.758,-11.847c0.626,2.658 0.512,5.508 0.257,8.255c-0.699,7.579 -2.304,15.058 -2.899,22.645c-0.596,7.587 -0.12,15.467 3.137,22.362c1.28,2.709 3.072,5.319 5.708,6.787" style="fill:#30082c;fill-rule:nonzero;"/><path d="M461.411,132.484c3.508,-4.782 5.39,-10.563 8.754,-15.447c4.691,-6.809 12.289,-11.589 20.513,-12.904c-21.531,0.295 -42.885,8.016 -59.533,21.524c-2.767,2.246 -5.453,4.699 -7.224,7.776c-1.771,3.076 -2.53,6.888 -1.28,10.205c13.821,3.687 30.361,0.306 38.77,-11.154" style="fill:#30082c;fill-rule:nonzero;"/><path d="M490.617,176.747c-7.453,-5.213 -15.445,-9.67 -23.813,-13.278c-4.492,-1.937 -9.105,-3.634 -13.871,-4.761c-8.674,-2.052 -17.68,-2.182 -26.597,-2.245c-3.488,-0.025 -7.049,-0.029 -10.358,1.062c2.271,1.576 4.542,3.151 6.813,4.727c-1.298,-0.173 -2.598,-0.333 -3.9,-0.466c-0.782,6.036 4.266,11.553 10.017,13.718c5.751,2.165 12.093,1.864 18.244,2.023c7.343,0.189 14.668,1.08 21.84,2.652c-1.104,-2.562 -3.414,-4.302 -5.929,-5.674l0.048,0c9.234,-0.003 18.639,-0.306 27.506,2.242" style="fill:#30082c;fill-rule:nonzero;"/><path d="M430.934,315.916c4.513,5.922 11.682,9.385 18.985,11.061c7.303,1.676 14.864,1.764 22.349,2.181c11.395,0.633 22.745,2.048 33.944,4.228c-2.712,-2.408 -6.202,-3.74 -9.609,-5.017c-4.085,-1.53 -8.178,-3.049 -12.298,-4.488c3.421,0.466 6.812,1.153 10.141,2.063c-7.189,-2.472 -14.164,-5.544 -21.426,-7.797c-7.262,-2.255 -14.934,-3.685 -22.486,-2.744c0.063,0.089 0.132,0.17 0.196,0.256c-6.594,-0.681 -13.242,-0.692 -19.796,0.257" style="fill:#30082c;fill-rule:nonzero;"/><path d="M127.967,289.114c0.434,0.451 0.507,0.977 0.355,1.428l-6.933,-5.642c-4.036,-4.445 -7.812,-9.072 -11.133,-14.011c6.065,5.906 11.822,12.125 17.711,18.225m58.906,-38.862c0.699,1.546 1.396,3.093 2.094,4.639c-2.145,-1.967 -4.362,-3.855 -6.643,-5.667c1.497,0.414 3.016,0.751 4.549,1.028m48.58,-39.454c0.497,-1.231 0.945,-2.464 1.348,-3.684c0.088,0.521 0.167,1.044 0.253,1.566c-0.554,0.692 -1.086,1.398 -1.601,2.118m113.559,76.173c0.017,0.417 0.029,0.834 0.043,1.251c-0.493,0.052 -0.988,0.096 -1.487,0.126c0.482,-0.459 0.96,-0.92 1.444,-1.377m15.844,-14.217c0.232,3.717 -0.082,7.463 -0.929,11.091c-2.542,1.182 -5.14,2.196 -7.81,2.972c-0.539,-1.623 -1.118,-3.233 -1.724,-4.835c3.434,-3.133 6.922,-6.21 10.463,-9.228m-2.282,-13.676c9.114,-6.681 20.056,-10.351 30.774,-13.684c0.179,-0.005 0.357,-0.009 0.537,-0.014c-7.29,4.864 -14.411,9.981 -21.342,15.34c0.132,-0.23 0.264,-0.461 0.384,-0.695c-3.11,0.198 -6.165,1.152 -9.215,1.725c-1.693,0.318 -2.487,-1.683 -1.138,-2.672m21.993,-26.605c2.48,-0.906 4.742,-2.299 7.092,-3.496c12.71,-6.473 27.531,-7.046 41.876,-6.502c-5.465,2.698 -10.867,5.525 -16.187,8.507c-3.69,2.068 -7.34,4.21 -10.953,6.411c-4.729,-0.284 -9.471,-0.331 -14.205,-0.144c-3.067,-1.318 -6.178,-2.537 -9.422,-3.322c-0.694,-0.168 -1.393,-0.31 -2.093,-0.441c1.324,-0.23 2.627,-0.552 3.892,-1.013m23.403,75.784c-0.009,0.234 -0.021,0.467 -0.012,0.701c-0.528,0.147 -1.056,0.294 -1.585,0.436c0.532,-0.381 1.064,-0.757 1.597,-1.137m-21.726,45.064c0.291,-0.056 0.584,-0.109 0.876,-0.164c0.027,0.009 0.054,0.018 0.08,0.027c2.244,0.846 4.36,1.936 6.37,3.202c-2.312,-0.074 -4.623,-0.14 -6.933,-0.194c-1.602,-0.038 -2.088,-2.543 -0.393,-2.871m-363.237,-149.264c5.409,2.238 10.68,4.814 15.809,7.457c13.509,6.963 26.95,14.42 39.496,22.98c7.31,4.986 14.297,10.453 20.598,16.651c0.988,0.972 -0.008,2.978 -1.437,2.443c-7.565,-2.828 -14.871,-6.327 -22.365,-9.327c7.766,4.85 15.465,9.803 22.638,15.496c4.272,3.39 8.29,7.033 12.18,10.807c0.184,0.568 0.363,1.137 0.54,1.7c0.541,1.723 1.118,3.433 1.712,5.14c-1.239,-1.009 -2.477,-2.018 -3.717,-3.026c1.848,1.903 3.412,4.025 4.87,6.23c0.632,1.704 1.285,3.399 1.969,5.082c-4.456,-2.443 -8.879,-4.953 -13.321,-7.421c2.016,2.148 4.021,4.305 6.015,6.474c3.653,2.595 7.158,5.359 10.509,8.327c0.745,1.617 1.506,3.225 2.3,4.818c0.424,0.85 0.861,1.698 1.307,2.543c-0.196,-0.203 -0.387,-0.413 -0.585,-0.614c0.229,0.261 0.452,0.528 0.68,0.788c0.722,1.359 1.477,2.702 2.287,4.008c-2.42,-1.686 -4.864,-3.331 -7.361,-4.883c-1.008,-0.627 -2.456,-1.194 -3.257,-0.323c-0.749,0.812 -0.19,2.102 0.414,3.025c2.163,3.307 4.629,6.399 7.262,9.355c-6.507,-2.648 -13.054,-5.182 -19.923,-6.807c-2.165,-0.512 -4.429,-0.749 -6.685,-1.027l25.684,21.209c-32.516,-2.756 -65.416,-1.032 -97.456,5.1c7.616,0.095 15.226,0.29 22.832,0.777c18.912,1.212 37.824,3.991 56.527,6.95c4.242,0.672 8.477,1.386 12.708,2.121c2.665,1.747 5.335,3.486 8.01,5.218c-2.029,-0.146 -4.061,-0.253 -6.094,-0.328c3.347,1.019 6.718,1.971 10.092,2.913c7.09,4.544 14.432,9.017 22.081,12.526c-14.182,-1.915 -28.534,-2.563 -42.843,-2.227c-14.402,1.695 -28.629,4.853 -42.374,9.434c-1.181,0.394 -2.429,0.943 -3.584,1.615l298.887,0c-1.275,-0.714 -2.57,-1.397 -3.89,-2.033c2.276,-0.445 4.559,-0.842 6.845,-1.216c4.335,1.084 8.67,2.166 13.006,3.249l12.53,0c-1.269,-1.154 -2.594,-2.253 -3.978,-3.28c2.409,0.874 4.735,1.967 6.903,3.28l1.547,0c-2.3,-2.08 -4.607,-4.153 -6.956,-6.177c4.971,-0.508 9.948,-0.98 14.921,-1.478c2.598,2.372 5.005,4.984 7.268,7.655l0.092,0c-0.681,-2.781 -1.595,-5.5 -2.724,-8.131c1.151,-0.121 2.301,-0.248 3.45,-0.375c2.697,1.396 5.318,2.932 7.848,4.605c-1.167,-1.7 -2.331,-3.411 -3.516,-5.108c3.803,-0.458 7.599,-0.963 11.381,-1.557c-4.484,-0.616 -8.987,-1.071 -13.5,-1.42c-1.829,-2.513 -3.734,-4.964 -5.797,-7.27c2.046,-0.337 4.094,-0.664 6.142,-0.985c0.454,0.508 0.91,1.014 1.351,1.532c-0.2,-0.552 -0.414,-1.1 -0.634,-1.644c1.465,-0.228 2.931,-0.452 4.398,-0.672c9.143,6.676 19.444,12.24 26.374,21.025l0.427,0c-2.954,-8.138 -6.527,-16.135 -11.531,-23.19c3.208,-0.429 6.417,-0.849 9.628,-1.254c1.572,-0.198 3.147,-0.381 4.721,-0.566c7.967,2.261 15.872,5.501 21.562,11.411c-3.801,-4.554 -8.089,-8.699 -12.75,-12.386c14.272,-1.454 28.609,-2.341 42.951,-2.427c2.3,-0.013 4.628,-0.154 6.961,-0.28c-0.003,-0.042 -0.007,-0.085 -0.009,-0.128c-0.529,-0.121 -1.058,-0.235 -1.591,-0.331c-6.403,-1.157 -12.86,-2.024 -19.33,-2.71c-13.86,-1.47 -27.866,-2.374 -41.873,-2.628c-9.612,-5.219 -20.184,-8.708 -31.059,-10.105c-0.41,1.283 -0.351,2.648 0.029,3.942c-2.181,-0.931 -4.442,-1.677 -6.776,-2.185c-1.296,-0.282 -2.943,-0.357 -3.642,0.76c-0.387,0.617 -0.329,1.406 -0.19,2.12c0.316,1.618 0.973,3.139 1.808,4.572c-1.223,-1.246 -2.513,-2.43 -3.871,-3.531c-2.601,-2.11 -5.916,-4.031 -9.16,-3.153c-0.315,0.085 -0.641,0.209 -0.839,0.468c-0.42,0.552 -0.026,1.339 0.414,1.878c1.641,2.011 3.893,3.425 6.042,4.895c0.885,0.605 1.758,1.228 2.621,1.865c-3.126,0.291 -6.248,0.632 -9.35,1.057c-0.291,0.04 -0.583,0.082 -0.876,0.124c-0.745,-0.24 -1.497,-0.449 -2.256,-0.63c-1.423,-0.925 -2.884,-1.796 -4.394,-2.58c-1.924,-1.001 -4.103,-1.889 -6.221,-1.924c0.864,-0.96 1.806,-1.853 2.791,-2.701c5.025,-1.858 10.179,-3.379 15.55,-4.434c11.793,-2.317 23.796,-3.355 35.477,-6.256c0.406,-0.101 0.228,-0.676 -0.169,-0.609c-13.589,2.295 -27.476,2.414 -40.985,5.252c-0.741,0.155 -1.478,0.321 -2.211,0.496c3.222,-2.087 6.522,-4.053 9.745,-6.141c2.226,-0.702 4.226,-2.118 5.819,-3.849c-0.378,1.08 -0.482,2.242 -0.563,3.387c-0.061,0.879 -0.061,1.908 0.638,2.456c1.133,-2.665 2.274,-5.395 3.06,-8.18c0.321,-0.231 0.644,-0.461 0.965,-0.693c1.749,3.249 5.314,5.376 8.995,6.138c4.029,0.831 8.211,0.274 12.258,-0.467c2.427,-0.445 4.91,-0.982 6.95,-2.353c2.194,-1.475 3.658,-3.762 5.299,-5.821c3.141,-3.94 7.525,-7.377 12.593,-7.578c-2.774,-0.963 -5.636,-1.933 -8.535,-2.218c0.478,-0.352 0.949,-0.717 1.402,-1.107c2.718,-2.332 4.832,-5.266 6.801,-8.244c2.844,-4.299 5.437,-8.759 7.783,-13.343c1.893,-1.082 3.794,-2.147 5.715,-3.176c8.751,-4.683 17.847,-8.286 27.229,-11.251c-3.955,-1.152 -8.342,-1.594 -12.326,-1.599c-35.808,-0.048 -70.755,9.268 -105.091,19.736c-0.211,-1.006 -0.449,-2.008 -0.72,-3.007c0.037,1.104 -0.023,2.195 -0.153,3.275c-0.794,0.242 -1.587,0.484 -2.38,0.728c-0.238,0.133 -0.476,0.263 -0.715,0.395c-1.082,-3.064 -2.264,-6.099 -3.486,-9.114c6.129,-5.199 12.412,-10.23 18.846,-15.079c5.187,-3.909 10.479,-7.702 15.855,-11.385c0.213,0.022 0.426,0.034 0.639,0.058c4.345,0.502 8.608,1.676 12.978,1.855c-3.09,-1.69 -6.251,-3.247 -9.444,-4.739c1.098,-0.734 2.199,-1.462 3.305,-2.186c2.118,-0.84 4.232,-1.696 6.358,-2.52c-0.704,-0.081 -1.408,-0.151 -2.113,-0.222c16.635,-10.622 34.028,-20.134 51.919,-28.357l1.286,3.18l36.351,5.205l17.457,2.602l-1.605,-1.792l1.426,1.467l10.941,-18.985l-2.178,-4.128l13.291,-1.207c0.109,0.09 0.231,0.166 0.359,0.229c0.436,0.215 0.875,0.425 1.338,0.574c0.204,0.066 0.417,0.12 0.631,0.105c0.249,-0.019 0.482,-0.13 0.692,-0.262c0.348,-0.219 0.654,-0.502 0.899,-0.829c0.035,-0.048 0.072,-0.102 0.069,-0.161c-0.003,-0.089 -0.089,-0.151 -0.167,-0.195c-0.509,-0.287 -1.08,-0.446 -1.644,-0.603c-0.199,-0.055 -0.401,-0.11 -0.608,-0.109c-0.259,0 -0.509,0.09 -0.752,0.178c-0.222,0.08 -0.443,0.161 -0.665,0.241c-0.114,0.041 -0.234,0.086 -0.31,0.181c-0.124,0.152 -0.085,0.388 0.036,0.543c0.006,0.007 0.014,0.011 0.019,0.018l-13.473,0.761l-4.5,-8.53l4.854,-1.876c0.491,0.318 1.003,0.609 1.512,0.897c0.135,0.075 0.278,0.154 0.434,0.162c0.115,0.006 0.229,-0.028 0.339,-0.061c0.229,-0.07 0.459,-0.139 0.688,-0.209c0.866,-0.261 1.837,-0.615 2.177,-1.445c-0.643,-0.449 -1.286,-0.898 -1.929,-1.347c-0.377,-0.263 -0.756,-0.528 -1.18,-0.706c-0.077,-0.033 -0.159,-0.063 -0.243,-0.059c-0.094,0.005 -0.179,0.053 -0.261,0.1c-0.959,0.547 -1.918,1.096 -2.878,1.643c0.384,0.359 0.805,0.668 1.243,0.958l-4.888,1.693l-5.64,-10.686l-15.789,-4.462c-0.486,0.075 -0.976,0.146 -1.473,0.226c-0.075,0.013 -0.148,0.026 -0.222,0.039c-0.262,0.042 -0.522,0.087 -0.783,0.132l-36.438,32.601l1.446,3.576c-9.893,3.848 -19.62,8.076 -29.14,12.732c-0.205,-0.136 -0.419,-0.254 -0.638,-0.358c0.21,0.121 0.423,0.238 0.634,0.36c-0.308,0.151 -0.613,0.308 -0.921,0.46c-3.106,-0.352 -6.189,-0.847 -9.259,-1.431c1.73,-0.07 3.462,-0.114 5.194,-0.099c1.48,0.012 3.038,0.092 4.352,0.71c-9.396,-5.375 -19.405,-9.992 -29.886,-12.548c15.157,-1.125 30.293,-7.256 45.256,-4.453c-5.037,-3.776 -10.395,-7.127 -15.991,-10.031c4.695,-0.347 9.398,-0.57 14.104,-0.654c4.814,-0.087 9.787,-0.007 14.197,1.903c-7.637,-6.258 -16.992,-10.196 -26.59,-12.665c-9.596,-2.469 -19.496,-3.54 -29.354,-4.603c-4.023,-0.434 -8.125,-0.865 -12.089,-0.058c-3.309,0.673 -6.432,2.215 -8.965,4.425c0.31,0.236 0.598,0.496 0.891,0.751c-0.382,0.227 -0.757,0.465 -1.118,0.722c-2.443,1.737 -4.548,4.167 -5.136,7.086c-0.595,2.957 0.429,6.01 1.856,8.673c1.375,2.571 3.196,4.992 5.687,6.534c0.124,0.076 0.254,0.14 0.38,0.211c-3.379,-0.062 -6.763,0.023 -10.144,0.055c-2.687,0.024 -5.381,0.013 -8.048,0.336c-3.734,0.452 -7.353,1.551 -10.947,2.645c2.266,1.171 3.886,3.129 5.46,5.162c-1.483,0.144 -2.949,0.382 -4.405,0.82c-0.367,0.11 -0.73,0.224 -1.094,0.336c-0.954,0.463 -1.894,0.958 -2.811,1.491c-1.425,0.831 -2.856,1.805 -3.634,3.248c-1.163,2.156 -0.605,4.782 -0.021,7.156c0.262,1.064 0.56,2.191 1.362,2.948c0.35,0.33 0.769,0.559 1.219,0.735c-1.611,0.076 -3.217,0.227 -4.815,0.48c-6.393,1.011 -12.774,3.882 -16.515,9.108c5.379,1.521 10.801,3.044 16.273,4.215c-6.128,2.18 -12.106,4.769 -17.873,7.762l1.226,-3.265l-5.587,-6.654c2.757,-3.704 5.567,-7.369 8.437,-10.989c12.283,-15.488 25.616,-30.163 39.902,-43.869c14.293,-13.711 29.529,-26.523 45.525,-38.252c0.392,-0.286 0.024,-0.943 -0.39,-0.66c-2.017,1.373 -4.023,2.76 -6.016,4.166c-16.259,11.472 -31.59,24.15 -45.987,37.841c-14.462,13.753 -28.012,28.484 -40.409,44.088c-1.218,1.534 -2.419,3.082 -3.618,4.631l-0.262,-0.313c0.379,-2.97 0.713,-5.944 1.003,-8.925c0.82,-4.287 1.094,-8.655 0.974,-13.039c0.524,-9.998 0.547,-20.021 0.05,-30.02c-1.489,1.376 -2.944,2.785 -4.384,4.209c-0.545,-1.716 -1.17,-3.406 -1.92,-5.046c-2.236,-4.887 -5.5,-9.238 -8.835,-13.469c-5.635,-7.152 -11.776,-14.275 -19.926,-18.427c6.021,7.824 9.091,17.477 11.102,27.105c0.411,1.97 0.778,3.949 1.13,5.93c-0.475,-0.79 -0.952,-1.576 -1.432,-2.359c2.87,7.93 3.687,16.431 3.469,24.878c-2.392,3.119 -4.685,6.312 -6.869,9.578l-10.558,1.327l-3.753,4.092c-1.795,-23.317 -6.031,-46.447 -9.538,-69.548c-2.289,-15.087 -4.257,-30.25 -5.001,-45.498c-0.641,-13.152 -0.161,-26.781 5.31,-38.974l1.638,0.489l26.79,-24.855l12.948,-11.873l-2.419,0.122l2.05,-0.186l-8.173,-20.302l-4.62,-0.892l7.338,-11.029c0.139,-0.027 0.276,-0.075 0.406,-0.135c0.441,-0.202 0.881,-0.411 1.287,-0.675c0.18,-0.117 0.356,-0.248 0.477,-0.423c0.141,-0.204 0.198,-0.453 0.225,-0.698c0.044,-0.406 0.012,-0.819 -0.095,-1.213c-0.015,-0.057 -0.034,-0.118 -0.083,-0.153c-0.073,-0.054 -0.175,-0.025 -0.259,0.007c-0.544,0.215 -1.025,0.557 -1.501,0.896c-0.168,0.119 -0.338,0.24 -0.466,0.401c-0.161,0.201 -0.247,0.45 -0.329,0.693l-0.224,0.664c-0.039,0.114 -0.078,0.234 -0.051,0.351c0.043,0.192 0.254,0.309 0.452,0.312c0.009,0 0.018,-0.004 0.026,-0.004l-7.805,10.891l-9.546,-1.842l1.548,-4.923c0.556,-0.181 1.105,-0.396 1.65,-0.61c0.145,-0.057 0.295,-0.118 0.399,-0.234c0.076,-0.086 0.12,-0.194 0.163,-0.301l0.265,-0.661c0.334,-0.833 0.66,-1.804 0.216,-2.585c-0.755,0.217 -1.512,0.434 -2.267,0.651c-0.443,0.127 -0.889,0.255 -1.295,0.471c-0.074,0.04 -0.149,0.083 -0.198,0.152c-0.054,0.075 -0.07,0.171 -0.084,0.264c-0.166,1.083 -0.331,2.166 -0.497,3.25c0.522,-0.073 1.03,-0.206 1.532,-0.364l-1.711,4.836l-11.961,-2.307l-13.377,9.423c-0.243,0.421 -0.493,0.846 -0.74,1.28c-0.001,0.003 -0.004,0.007 -0.005,0.01c-0.006,0.01 -0.012,0.021 -0.018,0.031c-0.029,0.051 -0.057,0.103 -0.086,0.155c-0.128,0.228 -0.256,0.457 -0.383,0.687l3.024,48.508l4.849,1.448c-6.762,13.04 -7.274,28.159 -6.822,42.55c0.963,30.674 6.507,60.937 9.758,91.401c0.59,5.519 1.097,11.054 1.488,16.598c-16.222,-42.399 -43.247,-80.748 -78.022,-110.29c8.688,13.772 16.031,28.361 21.96,43.495c-0.042,0.261 -0.087,0.521 -0.138,0.778c-1.24,6.193 -4.467,11.765 -7.257,17.478c0.006,-1.283 -0.019,-2.566 -0.079,-3.844c-0.179,-3.872 -0.699,-7.719 -1.566,-11.481c-1.55,-4.011 -3.519,-7.845 -5.87,-11.461c-0.585,-0.898 -1.169,-1.799 -1.756,-2.699c0.216,2.557 0.235,5.139 0.222,7.669c-0.033,6.325 0.046,12.627 0.217,18.951c0.168,6.187 0.389,12.48 1.313,18.611c0.507,3.363 1.293,6.68 2.567,9.797c0.292,-0.547 0.56,-1.105 0.81,-1.673c0.986,5.306 3.083,10.478 5.825,15.153c2.087,3.558 4.562,6.954 5.853,10.863c0.558,-10.795 1.121,-21.641 3.317,-32.231c0.953,-4.601 2.215,-9.156 2.677,-13.831c0.132,-1.339 0.188,-2.685 0.185,-4.03c2.092,6.753 3.909,13.59 5.449,20.486c-0.453,0.939 -0.911,1.875 -1.373,2.805c-4.596,9.244 -11.007,19.61 -8.277,30.074c2.166,-1.762 4.063,-3.903 5.721,-6.253c-1.318,3.609 -2.065,7.406 -2.046,11.24c0.018,3.422 0.786,7.106 3.356,9.395c0.355,-1.158 0.871,-2.22 1.488,-3.222c-0.376,2.394 -0.043,4.626 0.376,6.879c1.496,-1.211 3.657,-2.051 5.795,-2.742c-1.746,2.487 -3.333,5.067 -4.581,7.83c-0.504,1.115 -0.936,2.259 -1.321,3.417c-2.2,-2.345 -4.454,-4.671 -6.759,-6.945c-7.37,-20.754 -17.081,-40.567 -28.974,-59.262c-0.311,-0.489 -1.079,-0.05 -0.785,0.453c8.052,13.702 14.959,28.071 20.804,42.828c1.518,3.831 2.962,7.689 4.335,11.569c-5.268,-4.846 -10.815,-9.304 -16.669,-12.985c0.023,0.003 0.047,0.006 0.07,0.01c0.403,0.059 0.841,-0.055 1.201,-0.276c0.269,0.16 0.538,0.32 0.807,0.48c0.487,0.293 1.016,0.277 1.467,0.08c-2.027,-3.204 -5.406,-5.664 -8.564,-7.583c-4.966,-3.017 -10.464,-5.076 -16.024,-6.743c-8.418,-2.525 -17.099,-4.228 -25.412,-6.979c-0.058,0.414 0.054,0.837 0.4,1.111c3.531,2.792 6.767,5.935 10.409,8.592c1.149,0.838 2.343,1.606 3.569,2.317c1.137,2.521 2.275,5.043 3.413,7.564c-4.029,-0.856 -8.059,-1.71 -12.088,-2.565l7.078,6.519c2.827,2.605 5.658,5.213 8.691,7.579c0.04,0.031 0.082,0.06 0.123,0.091c-2.03,-0.063 -4.059,-0.137 -6.086,-0.262c-3.072,-0.19 -6.119,-0.529 -9.117,-1.078c-5.73,-3.18 -11.711,-5.921 -17.879,-8.164c0.105,1.027 0.259,2.049 0.452,3.063c-16.132,-19.323 -31.369,-40.978 -37.465,-65.647l3.072,-0.917l3.023,-48.509c-0.127,-0.23 -0.254,-0.459 -0.383,-0.688l0.001,0c-0.037,-0.066 -0.073,-0.13 -0.11,-0.195c-0.247,-0.435 -0.496,-0.858 -0.74,-1.281l-13.376,-9.422l-11.961,2.306l-1.712,-4.835c0.502,0.158 1.01,0.291 1.532,0.364c-0.165,-1.084 -0.331,-2.167 -0.497,-3.251c-0.013,-0.093 -0.029,-0.188 -0.084,-0.264c-0.049,-0.068 -0.124,-0.112 -0.198,-0.151c-0.406,-0.215 -0.852,-0.344 -1.294,-0.471c-0.756,-0.217 -1.512,-0.434 -2.268,-0.651c-0.444,0.781 -0.117,1.752 0.216,2.584c0.089,0.221 0.177,0.441 0.265,0.663c0.043,0.105 0.087,0.214 0.164,0.3c0.103,0.115 0.253,0.176 0.399,0.234c0.544,0.214 1.093,0.429 1.65,0.609l1.548,4.924l-9.547,1.841l-7.805,-10.89c0.009,0 0.018,0.004 0.026,0.004c0.199,-0.004 0.409,-0.12 0.452,-0.311c0.027,-0.118 -0.012,-0.239 -0.05,-0.353c-0.075,-0.222 -0.15,-0.442 -0.224,-0.663c-0.083,-0.244 -0.168,-0.492 -0.329,-0.693c-0.129,-0.161 -0.299,-0.282 -0.466,-0.402c-0.476,-0.339 -0.958,-0.681 -1.502,-0.894c-0.084,-0.033 -0.186,-0.062 -0.259,-0.009c-0.048,0.036 -0.068,0.096 -0.083,0.154c-0.106,0.395 -0.138,0.808 -0.094,1.213c0.027,0.245 0.084,0.494 0.225,0.697c0.121,0.176 0.297,0.307 0.477,0.423c0.405,0.264 0.846,0.474 1.287,0.676c0.13,0.059 0.266,0.108 0.405,0.135l7.338,11.029l-4.62,0.891l-8.172,20.302l2.049,0.188l-2.418,-0.123l12.948,11.873l26.79,24.854l3.748,-1.119c2.519,13.654 7.752,26.433 14.697,38.481c7.631,13.236 17.04,25.233 26.801,36.972c1.898,3.687 4.401,7.07 7.423,9.931c-9.608,-7.042 -19.73,-13.387 -30.25,-19.007c-3.309,-9.764 -8.005,-19.069 -13.427,-27.878c2.033,7.799 3.896,15.659 5.095,23.618c-1.241,-0.606 -2.489,-1.2 -3.74,-1.786c-2.607,-5.678 -5.892,-10.968 -10.462,-15.222c2.068,4.229 4.045,8.561 5.606,13.003c-28.048,-12.443 -58.356,-19.919 -89.043,-21.747c0.185,0.153 0.369,0.307 0.554,0.46" style="fill:#30082c;fill-rule:nonzero;"/><path d="M814.826,369.261c0.577,-2.051 1.297,-4.021 2.161,-5.855c-1.497,1.952 -2.994,3.903 -4.491,5.855l2.33,0Z" style="fill:#30082c;fill-rule:nonzero;"/><path d="M603.564,345.339c-0.858,1.595 -1.75,3.15 -2.663,4.678c0.617,-3.587 1.219,-7.177 1.775,-10.778c0.14,-0.91 0.278,-1.82 0.414,-2.73c1.212,-2.968 2.382,-5.961 3.753,-8.851c0.063,0.415 0.135,0.827 0.193,1.246c0.858,6.097 1.039,12.562 0.439,18.835c-2.741,5.5 -5.092,11.253 -7.028,17.183c0.561,-6.641 1.606,-13.22 3.117,-19.583m1.698,-25.655c0.107,0.441 0.216,0.881 0.318,1.325c-0.189,0.342 -0.382,0.681 -0.568,1.025c0.088,-0.783 0.169,-1.566 0.25,-2.35m124.399,8.677c0.203,8.21 0.77,16.401 1.713,24.529c-3.896,0.777 -7.792,1.554 -11.687,2.329c2.582,-9.463 5.949,-18.493 9.974,-26.858m-191.146,40.9l254.19,0c-0.81,-6.513 0.057,-13.538 2.426,-19.35c-4.817,3.383 -8.654,9.814 -10.292,17.247c-0.931,-8.753 -1.073,-17.725 -0.44,-26.618c3.186,-8.765 6.74,-17.357 10.649,-25.732c-9.946,15.992 -21.477,30.671 -30.699,47.227c-0.924,1.659 -1.822,3.346 -2.694,5.054c-4.944,-1.051 -10.014,-1.068 -15.008,-0.016c-0.292,-3.764 -0.759,-7.527 -1.348,-11.29c1.023,-2.34 2.244,-4.499 3.637,-6.392c-1.525,0.304 -3.049,0.608 -4.573,0.911c-2.148,-11.655 -5.206,-23.304 -7.579,-34.929c1.849,-2.968 3.786,-5.818 5.813,-8.524c-2.169,1.671 -4.338,3.343 -6.506,5.015c-2.65,-13.88 -4.086,-27.723 -1.582,-41.497c-2.99,15.275 -4.621,30.875 -4.895,46.489c-5.248,4.045 -10.496,8.09 -15.743,12.134c-0.534,-0.176 -1.131,-0.08 -1.543,0.418c-0.35,0.421 -0.62,0.913 -0.856,1.432c-1.367,1.053 -2.734,2.108 -4.102,3.162c-0.174,-3.843 0.03,-7.711 0.552,-11.429c0.063,-0.449 -0.611,-0.59 -0.684,-0.139c-0.669,4.119 -0.887,8.202 -0.696,12.205l-4.548,3.506c-0.355,-0.335 -0.723,-0.648 -1.13,-0.872c-1.092,-0.599 -2.427,-0.163 -2.676,1.369c-0.113,0.692 0.159,1.47 0.626,1.954c-1.828,1.41 -3.655,2.818 -5.483,4.227c-0.383,-6.804 0.354,-13.796 2.132,-20.22c-9.274,9.318 -16.623,22.821 -20.735,38.097c-3.462,-17.032 -9.536,-32.783 -17.653,-45.78c4.04,13.013 4.929,28.213 2.481,42.386c-2.961,-4.577 -4.629,-10.917 -4.565,-17.345c-5.947,6.281 -11.893,12.562 -17.839,18.843c1.594,-3.84 2.907,-7.839 4.182,-11.836c9.238,-28.97 16.933,-58.667 28.468,-86.546c-14.517,26.265 -37.027,45.609 -53.45,70.146c-0.126,-1.871 -0.293,-3.737 -0.527,-5.592c-0.507,-4.008 -1.331,-7.959 -2.436,-11.721c0.882,-1.661 1.757,-3.328 2.6,-5.018c4.786,-9.598 8.711,-21.01 7.87,-32.171c-0.011,-0.143 -0.208,-0.114 -0.214,0.024c-0.503,12.388 -5.934,22.411 -11.876,32.332c-1.463,-3.865 -3.247,-7.431 -5.316,-10.527c0.085,-8.888 -0.519,-17.759 -2.181,-26.55c-2.179,-11.532 -5.472,-22.92 -10.121,-33.393c-0.15,-0.337 -0.645,-0.141 -0.555,0.242c2.391,10.14 5.686,19.948 7.774,30.199c1.759,8.64 2.629,17.413 2.669,26.269c-2.97,-3.553 -6.399,-6.194 -10.215,-7.522c3.491,7.422 6.863,15.127 9.434,23.324c-0.631,6.347 -1.597,12.629 -2.758,18.873c-0.499,1.195 -0.96,2.413 -1.352,3.651c-2.337,-16.837 -8.973,-34.025 -4.838,-50.423c-7.876,25.459 -8.653,53.418 -3.462,79.607c-0.718,0.85 -1.447,1.683 -2.183,2.497c-1.679,-8.284 -3.92,-16.41 -6.683,-24.283c-2.625,-7.471 -5.698,-14.696 -8.938,-21.83c1.706,-12.016 3.412,-24.033 5.119,-36.049c-2.79,9.936 -5.415,19.964 -7.877,30.07c-6.068,-12.996 -12.437,-25.83 -17.394,-39.441c-1.948,-5.349 -3.331,-10.191 -3.519,-16.017c-3.385,22.045 -6.781,44.218 -6.891,66.555c-0.053,10.856 0.695,21.669 2.152,32.347c-1.639,-2.795 -3.278,-5.59 -4.918,-8.386c-0.4,6.542 -0.8,13.084 -1.201,19.626" style="fill:#30082c;fill-rule:nonzero;"/><path d="M804.149,369.261c-3.297,-1.868 -7.113,-1.954 -10.478,0l10.478,0Z" style="fill:#30082c;fill-rule:nonzero;"/><path d="M522.207,369.261l12.655,0c-4.34,-12.641 -10.64,-23.756 -18.351,-32.194c3.665,9.74 5.62,20.903 5.696,32.194" style="fill:#30082c;fill-rule:nonzero;"/><path d="M512.132,369.261c0.124,-1.268 0.249,-2.537 0.372,-3.806c-0.996,1.269 -1.993,2.538 -2.99,3.806l2.618,0Z" style="fill:#30082c;fill-rule:nonzero;"/><path d="M481.919,369.261c-0.82,-4.691 -1.638,-9.38 -2.457,-14.071c-1.776,1.954 -3.552,3.907 -5.327,5.861l1.48,-17.267c-3.192,7.54 -6.385,15.08 -9.577,22.619c0.823,-21.126 1.09,-42.27 0.801,-63.367c-3.952,22.075 -7.904,44.149 -11.855,66.225l26.935,0Z" style="fill:#30082c;fill-rule:nonzero;"/><path d="M505.962,369.261c4.281,-27.02 12.474,-52.894 23.884,-75.343c-17.625,21.866 -33.202,47.324 -46.13,75.343l22.246,0Z" style="fill:#30082c;fill-rule:nonzero;"/><path d="M453.982,369.261c0.186,-3.857 0.373,-7.712 0.56,-11.569c-2.652,4.142 -5.505,8.003 -8.518,11.569l7.958,0Z" style="fill:#30082c;fill-rule:nonzero;"/><path d="M431.47,369.261l5.019,0c0.465,-1.199 0.915,-2.41 1.326,-3.648c-2.115,1.216 -4.23,2.432 -6.345,3.648" style="fill:#30082c;fill-rule:nonzero;"/><path d="M290.52,356.413l-1.739,12.848l141.325,0c13.028,-21.279 20.44,-49.73 20.226,-77.817c-6.73,14.783 -14.676,28.396 -23.571,40.498c1.564,-6.638 3.32,-13.229 5.589,-19.548c0.118,-0.327 -0.333,-0.576 -0.482,-0.263c-4.124,8.691 -7.83,17.274 -10.341,26.622c-0.902,1.123 -1.812,2.233 -2.731,3.325c0.129,-3.599 0.362,-7.192 0.706,-10.771c1.991,-20.678 6.961,-41.66 3.409,-62.377c-0.048,-0.283 -0.392,-0.172 -0.37,0.1c1.839,21.967 -3.888,43.132 -6.88,64.648c-0.626,4.501 -1.051,8.992 -1.296,13.47c-6.138,6.771 -12.609,12.874 -19.351,18.215l11.849,-23.763c-9.702,3.934 -19.134,9.494 -28.054,16.531c-0.228,-0.371 -0.558,-0.588 -0.913,-0.662c12.426,-25.44 24.851,-50.878 37.277,-76.317c-0.1,0.62 0.019,1.271 0.473,1.777c0.309,0.344 0.575,0.579 0.98,0.778c-0.008,-0.004 0.519,0.25 0.269,0.115c0.387,0.21 0.768,0.426 1.158,0.629c0.323,0.166 0.634,0.361 1.009,0.421c0.257,0.042 0.501,0.085 0.754,0.159c0.084,0.024 0.174,-0.021 0.204,-0.123c0.111,-0.375 0.21,-0.771 0.251,-1.166c0.061,-0.587 -0.108,-1.091 -0.289,-1.63c-0.4,-1.2 -1.234,-2.384 -2.289,-2.835c-0.686,-0.293 -1.352,-0.038 -1.834,0.469l0.854,-1.747c-22.66,6.91 -43.152,26.259 -60.122,49.924c-1.505,2.099 -2.981,4.237 -4.439,6.4c0.134,-2.615 0.203,-5.238 0.275,-7.831c0.699,-24.629 2.742,-49.813 11.655,-72.331c-3.89,7.796 -9.842,13.893 -14.98,20.664c-9.727,12.822 -16.433,28.49 -19.775,45.021c1.56,-23.794 6.568,-46.947 11.427,-70.133c0.066,-0.316 -0.299,-0.447 -0.411,-0.151c-8.704,22.897 -13.637,47.712 -15.424,72.523c-0.87,12.078 -0.881,24.204 0.034,36.25c0.271,3.583 0.661,7.148 1.135,10.698c-6.071,-12.298 -14.906,-23.255 -23.378,-33.658c-13.707,-16.834 -27.915,-35.905 -28.931,-59.138c0.836,18.721 1.978,37.626 6.786,55.466c2.338,8.678 5.636,17.134 9.955,24.71" style="fill:#30082c;fill-rule:nonzero;"/><path d="M275.376,369.261c0.072,-2.259 0.421,-4.511 1.059,-6.658c-3.057,1.178 -5.739,3.586 -7.569,6.658l6.51,0Z" style="fill:#30082c;fill-rule:nonzero;"/><path d="M266.488,369.261c-0.872,-8.265 0.645,-16.901 4.329,-24.138c-2.568,2.029 -5.167,4.106 -7.708,6.277c0.099,5.953 0.186,11.907 0.272,17.861l3.107,0Z" style="fill:#30082c;fill-rule:nonzero;"/><path d="M734.508,270.367c0.134,-0.677 0.26,-1.357 0.397,-2.033c-0.142,0.677 -0.273,1.356 -0.397,2.033" style="fill:#30082c;fill-rule:nonzero;"/><path d="M596.425,243.618c0.065,0.337 0.554,0.404 0.625,0.027c0.473,-2.491 1.53,-5.039 2.666,-7.213c0.749,-1.434 0.372,-3.006 -0.717,-3.987c-0.589,-0.53 -1.208,-0.513 -1.91,-0.376c-0.964,0.188 -2.034,1.515 -1.957,2.702c0.097,1.491 0.255,2.952 0.439,4.429c0.194,1.549 0.568,2.913 0.854,4.418" style="fill:#30082c;fill-rule:nonzero;"/><path d="M587.908,232.847c1.195,1.401 1.31,3.818 2.845,4.866c0.155,0.106 0.396,0.038 0.447,-0.186c0.439,-1.938 -0.803,-3.69 -0.591,-5.634c0.244,-2.256 1.074,-4.225 -0.116,-6.341c-1.477,-2.624 -5.224,-2.062 -5.41,1.437c-0.148,2.764 1.308,4.078 2.825,5.858" style="fill:#30082c;fill-rule:nonzero;"/><path d="M586.679,242.926c0.784,-0.053 1.557,-0.15 2.337,-0.243c0.725,-0.087 1.507,-0.489 2.227,-0.355c0.217,0.039 0.322,-0.309 0.193,-0.474c-0.534,-0.684 -0.73,-1.599 -1.313,-2.259c-0.608,-0.689 -1.258,-1.269 -2.026,-1.694c-1.342,-0.743 -3.015,-0.339 -3.534,1.476c-0.449,1.568 0.56,3.656 2.116,3.549" style="fill:#30082c;fill-rule:nonzero;"/><path d="M587.933,245.866c-0.905,0.395 -1.236,1.861 -0.929,2.795c0.312,0.945 1.318,1.809 2.253,1.413c0.65,-0.274 1.233,-0.612 1.851,-0.965c0.468,-0.266 1.094,-0.391 1.451,-0.84c0.299,-0.375 0.424,-0.887 0.214,-1.356c-0.344,-0.766 -1.206,-1.105 -1.902,-1.306c-1.035,-0.299 -1.941,-0.176 -2.938,0.259" style="fill:#30082c;fill-rule:nonzero;"/><path d="M593.584,252.213c0.002,-0.006 0.004,-0.009 0.006,-0.015c-0.001,0.002 -0.002,0.003 -0.003,0.004c-0.001,0.005 -0.002,0.006 -0.003,0.011" style="fill:#30082c;fill-rule:nonzero;"/><path d="M592.991,250.912c-0.765,-0.299 -1.751,0.456 -1.983,1.309c-0.119,0.435 -0.066,1.045 0.247,1.362c0.137,0.139 0.251,0.255 0.415,0.344c0.168,0.092 0.334,0.123 0.52,0.102c0.072,0 0.141,-0.014 0.209,-0.037c0.086,-0.012 0.237,-0.092 0.298,-0.128c0.231,-0.144 0.407,-0.372 0.519,-0.642c0.073,-0.175 0.093,-0.228 0.125,-0.42l0,-0.001c0.002,-0.01 0.005,-0.023 0.009,-0.037c0.014,-0.028 0.028,-0.057 0.031,-0.063c0.083,-0.151 0.155,-0.307 0.201,-0.479c0.001,-0.005 0.001,-0.005 0.002,-0.009c-0.006,0.015 -0.014,0.031 -0.024,0.042c0.01,-0.012 0.019,-0.033 0.027,-0.053c0.002,-0.006 0.004,-0.012 0.005,-0.017c0.002,-0.001 0.002,0 0.002,-0.001c-0.001,0.005 -0.003,0.009 -0.004,0.015c0.003,-0.007 0.007,-0.012 0.01,-0.017c0.023,-0.008 0.058,-0.025 0.076,-0.032c0.101,-0.035 0.164,-0.14 0.144,-0.263c-0.075,-0.479 -0.447,-0.825 -0.829,-0.975" style="fill:#30082c;fill-rule:nonzero;"/><path d="M599.157,249.766c0.025,0.47 0.442,0.943 0.867,0.633c0.51,-0.371 1.128,-0.707 1.602,-0.926c0.172,-0.08 0.339,-0.164 0.51,-0.251c0.101,-0.05 0.465,-0.207 0.187,-0.09c0.62,-0.261 1.108,-0.525 1.637,-0.994c0.987,-0.876 1.01,-2.872 0.173,-3.845c-0.958,-1.111 -2.271,-1.08 -3.323,-0.146c-1.39,1.232 -1.755,3.737 -1.653,5.619" style="fill:#30082c;fill-rule:nonzero;"/><path d="M603.256,251.656c-0.377,0.397 -0.624,0.922 -0.697,1.511c-0.013,0.101 0.089,0.15 0.158,0.115c0.221,-0.115 0.466,-0.172 0.707,-0.167c0.241,0.41 0.616,0.693 1.087,0.713c0.745,0.033 1.492,-0.692 1.498,-1.584c0.005,-0.86 -0.551,-1.715 -1.35,-1.709c-0.648,0.005 -1.189,0.435 -1.403,1.121" style="fill:#30082c;fill-rule:nonzero;"/><path d="M595.977,259.452c0,0.009 0,0.019 -0.001,0.03c-0.003,0.013 -0.01,0.049 -0.02,0.121c-0.043,0.241 -0.034,0.179 0.021,-0.151m-0.078,-1.946c-0.656,-0.723 -1.561,-0.518 -2.219,0.135c-1.016,1.008 -0.986,3.388 0.454,3.877c0.538,0.184 1.315,-0.034 1.599,-0.668c0.144,-0.323 0.267,-0.611 0.267,-0.983c0,-0.072 -0.006,-0.358 -0.012,-0.481c0.006,-0.041 0.011,-0.068 0.019,-0.115c0.012,-0.165 0.003,-0.329 -0.019,-0.492c0.003,-0.07 0.006,-0.159 0.006,-0.186c0.008,-0.174 0.075,-0.297 0.011,-0.485c0.001,-0.003 0.001,-0.004 0.002,-0.006c0.066,-0.188 0.017,-0.458 -0.108,-0.596" style="fill:#30082c;fill-rule:nonzero;"/><path d="M597.937,264.587c0.196,-0.149 0.209,-0.427 0.026,-0.593c-0.13,-0.118 -0.272,-0.129 -0.432,-0.16c-0.482,-0.094 -0.529,0.925 -0.039,0.874c0.163,-0.016 0.304,-0.013 0.445,-0.121" style="fill:#30082c;fill-rule:nonzero;"/><path d="M605.316,261.364c-0.029,-0.018 -0.058,-0.037 -0.087,-0.054c-0.491,-0.305 -1.151,-0.33 -1.582,0.165c-0.435,0.5 -0.519,1.172 -0.284,1.809c0.013,0.034 0.026,0.069 0.039,0.104c0.339,0.921 1.475,1.038 2.075,0.403c0.6,-0.635 0.6,-1.954 -0.161,-2.427" style="fill:#30082c;fill-rule:nonzero;"/><path d="M622.506,274.69c0.17,0.186 0.461,0.194 0.598,-0.062c1.081,-2.03 1.113,-4.575 2.369,-6.501c0.949,-1.455 0.143,-3.612 -1.245,-4.122c-1.422,-0.523 -3.132,0.72 -3.144,2.531c-0.019,2.74 -0.476,6.077 1.422,8.154" style="fill:#30082c;fill-rule:nonzero;"/><path d="M625.582,277.669c0.108,0.228 0.363,0.168 0.447,-0.047c0.228,-0.578 0.546,-1.194 0.906,-1.675c0.372,-0.496 0.909,-0.755 1.326,-1.203c0.48,-0.518 0.682,-1.471 0.337,-2.145c-0.143,-0.279 -0.308,-0.458 -0.523,-0.662c-0.489,-0.462 -1.44,-0.328 -1.875,0.197c-1.158,1.4 -1.411,3.859 -0.618,5.535" style="fill:#30082c;fill-rule:nonzero;"/><path d="M628.289,278.542c-0.66,-0.118 -1.311,0.43 -1.675,1.008c-0.215,0.338 -0.344,0.759 -0.449,1.158c-0.055,0.214 -0.107,0.429 -0.114,0.654c0,0.092 0.003,0.183 0.009,0.275c0.036,0.285 0.035,0.343 -0.005,0.175c-0.02,-0.144 -0.054,-0.113 -0.1,0.094c-0.036,0.082 -0.07,0.164 -0.102,0.248c-0.069,0.178 -0.128,0.357 -0.176,0.543c-0.1,0.387 -0.152,0.781 -0.168,1.181c-0.017,0.44 0.494,0.511 0.632,0.128c0.132,-0.363 0.303,-0.701 0.525,-1.002c0.087,-0.118 0.182,-0.245 0.289,-0.343c0.048,0.009 0.096,0.016 0.143,0.027c0.019,0.003 0.114,0.015 0.183,0.023c0.06,0.023 0.165,0.058 0.184,0.064c0.757,0.237 1.537,0.101 2.098,-0.585c0.508,-0.622 0.747,-1.44 0.476,-2.264c-0.276,-0.837 -0.847,-1.222 -1.592,-1.356c-0.053,-0.01 -0.105,-0.019 -0.158,-0.028" style="fill:#30082c;fill-rule:nonzero;"/><path d="M626.438,286.649c-0.592,0.411 -0.853,0.814 -0.989,1.51c-0.557,0.522 -0.975,1.188 -1.204,1.979c-0.049,0.169 0.149,0.339 0.263,0.195c0.369,-0.468 0.801,-0.787 1.302,-0.98c0.244,0.265 0.504,0.429 0.852,0.607c1.042,0.536 2.118,-0.737 2.035,-1.891c-0.086,-1.203 -1.288,-2.094 -2.259,-1.42" style="fill:#30082c;fill-rule:nonzero;"/><path d="M617.409,280.616c0.017,0.004 0.034,0.009 0.052,0.013c0.29,0.069 0.613,0.102 0.93,0.069c0.127,0.058 0.253,0.12 0.385,0.174c0.328,0.135 0.642,0.306 0.971,0.433c0.638,0.245 1.208,0.389 1.211,1.297c0.001,0.232 0.228,0.289 0.347,0.126c0.95,-1.298 0.985,-3.216 0.299,-4.65c-0.489,-1.021 -1.248,-2.026 -2.217,-2.431c-1.677,-0.701 -3.204,0.484 -3.459,2.483c-0.126,0.987 0.624,2.281 1.481,2.486" style="fill:#30082c;fill-rule:nonzero;"/><path d="M617.398,287.539l0.003,0c0.078,0.03 0.158,0.06 0.237,0.087c0.215,0.075 0.437,0.158 0.654,0.224c0.012,0.01 0.017,0.016 0.033,0.028c0.083,0.068 0.169,0.14 0.255,0.202c0.144,0.103 0.297,0.188 0.457,0.253c0.033,0.013 0.27,0.119 0.115,0.032c0.406,0.227 0.94,0.206 1.203,-0.308c0.266,-0.52 0.418,-1.009 0.349,-1.622c-0.05,-0.452 -0.176,-0.883 -0.328,-1.301c-0.429,-1.178 -1.238,-1.816 -2.206,-2.334c-0.867,-0.464 -1.903,0.218 -2.417,1.01c-0.34,0.524 -0.401,1.242 -0.296,1.86c0.185,1.084 1.032,1.772 1.941,1.869" style="fill:#30082c;fill-rule:nonzero;"/><path d="M616.98,290.092c-0.052,0.01 -0.104,0.02 -0.155,0.033c-0.563,0.134 -0.877,0.706 -0.954,1.316c-0.009,0.076 -0.02,0.152 -0.033,0.227c-0.087,0.54 0.262,1.228 0.656,1.485c0.361,0.236 0.706,0.502 1.135,0.526c0.075,0.005 0.15,0.003 0.225,0.005c0.006,0.001 0.019,0.003 0.032,0.006c0.025,0.016 0.103,0.055 0.103,0.054c0.226,0.122 0.507,-0.099 0.581,-0.345c0.004,-0.012 0.03,-0.102 0.039,-0.138c0.007,-0.017 0.014,-0.035 0.016,-0.04c0.068,-0.156 0.15,-0.333 0.2,-0.503c0.177,-0.607 -0.018,-1.232 -0.236,-1.78c-0.282,-0.709 -0.987,-0.958 -1.609,-0.846" style="fill:#30082c;fill-rule:nonzero;"/><path d="M340.849,246.177c1.569,-0.767 2.236,-2.586 3.292,-4.024c1.254,-1.708 2.19,-3.475 2.997,-5.516c-0.024,0.003 -0.049,0.006 -0.073,0.009c0.711,-2.62 -2.628,-4.905 -3.896,-2.166c-0.914,1.976 -1.554,3.917 -1.955,6.096c-0.338,1.835 -1.191,3.506 -0.754,5.397c0.048,0.207 0.223,0.284 0.389,0.204" style="fill:#30082c;fill-rule:nonzero;"/><path d="M345.133,244.212c-1.441,1.173 -3.724,3.669 -2.745,5.913c0.04,0.091 0.149,0.157 0.239,0.125c1.477,-0.532 2.441,-2.367 3.698,-3.39c0.576,-0.469 0.908,-1.253 0.557,-2.032c-0.29,-0.644 -1.169,-1.088 -1.749,-0.616" style="fill:#30082c;fill-rule:nonzero;"/><path d="M345.876,250.932c-0.378,-0.753 -1.116,-1.191 -1.876,-0.986c-1.268,0.341 -1.639,1.599 -2.119,2.831c-0.472,1.207 -0.732,2.442 -1.022,3.719c-0.053,0.234 0.169,0.54 0.381,0.37c0.626,-0.498 1.282,-0.966 1.884,-1.503c0.333,-0.297 0.625,-0.642 0.928,-0.979c0.13,-0.144 0.259,-0.288 0.389,-0.432c1.121,-0.071 2.17,-1.556 1.435,-3.02" style="fill:#30082c;fill-rule:nonzero;"/><path d="M343.608,258.588c-0.632,-1.046 -2.355,-1.261 -2.921,0.078c-0.41,0.971 -1.086,1.778 -1.46,2.781c-0.339,0.907 -0.438,1.809 -0.446,2.781c0,0.048 0.041,0.076 0.079,0.057c0.672,-0.342 1.321,-0.663 1.95,-1.11c0.551,-0.392 1.136,-1.168 1.736,-1.419c1.151,-0.482 1.827,-1.902 1.062,-3.168" style="fill:#30082c;fill-rule:nonzero;"/><path d="M339.659,265.05c-0.723,0.375 -1.008,1.221 -1.363,1.979c-0.147,0.313 -0.338,0.635 -0.437,0.972c-0.096,0.331 -0.119,0.717 -0.177,1.06c-0.048,0.288 0.123,0.602 0.41,0.519c0.273,-0.079 0.557,-0.14 0.826,-0.239c0.32,-0.118 0.601,-0.363 0.885,-0.567c0.725,-0.521 1.421,-0.916 1.74,-1.894c0.441,-1.35 -0.876,-2.352 -1.884,-1.83" style="fill:#30082c;fill-rule:nonzero;"/><path d="M335.154,252.51c0.541,0.508 1.408,0.153 1.767,-0.452c0.864,-1.457 1.053,-3.397 1.125,-5.112c0.073,-1.747 -1.217,-3.137 -2.709,-2.97c-1.629,0.182 -2.382,1.791 -2.244,3.522c0.153,1.914 0.759,3.793 2.061,5.012" style="fill:#30082c;fill-rule:nonzero;"/><path d="M333.05,257.602c0.183,0.064 0.381,0.089 0.577,0.104c-0.008,0.001 0.013,0.004 0.071,0.007c-0.01,-0.001 -0.019,-0.003 -0.028,-0.003c0.028,0.001 0.057,0.006 0.084,0.006c-0.022,0 -0.039,-0.002 -0.056,-0.003c0.034,0.006 0.076,0.017 0.12,0.032c0.011,0.004 0.173,0.074 0.201,0.08c0.13,0.077 0.256,0.172 0.394,0.223c0.156,0.058 0.265,0.043 0.399,0.063c0.036,0.011 0.185,0.05 0.208,0.058c0.177,0.067 0.398,-0.02 0.498,-0.207c0.121,-0.228 0.223,-0.48 0.282,-0.739c0.131,-0.577 -0.065,-1.16 -0.328,-1.645c-0.236,-0.434 -0.494,-0.791 -0.831,-1.12c-0.657,-0.642 -1.701,-0.677 -2.344,0.057c-0.349,0.399 -0.599,1.041 -0.445,1.611c0.194,0.717 0.554,1.252 1.198,1.476" style="fill:#30082c;fill-rule:nonzero;"/><path d="M329.998,263.523c0.147,0.031 0.352,0.076 0.343,0.084c0.203,0.003 0.409,-0.048 0.604,-0.097c0.02,-0.005 0.118,-0.027 0.177,-0.042c0.103,-0.005 0.308,-0.021 0.321,-0.023c0.102,-0.014 0.202,-0.044 0.304,-0.062c0.046,-0.001 0.145,-0.006 0.166,-0.001c0.099,0.026 0.252,0.108 0.37,0.216c0.157,0.142 0.385,0.004 0.445,-0.186c0.257,-0.801 0.049,-1.809 -0.44,-2.428c-0.351,-0.444 -0.889,-0.641 -1.389,-0.736c-0.781,-0.148 -1.475,0.236 -1.894,1.028c-0.551,1.042 0.065,2.064 0.993,2.247" style="fill:#30082c;fill-rule:nonzero;"/><path d="M329.998,263.523c-0.146,-0.03 -0.234,-0.046 0,0" style="fill:#30082c;fill-rule:nonzero;"/><path d="M329.66,270.25c0.022,-0.005 0.03,-0.008 0.042,-0.012c0.228,-0.024 0.445,-0.068 0.657,-0.192c0.225,-0.133 0.499,-0.336 0.678,-0.521c0.269,-0.276 0.461,-0.597 0.54,-0.998c-0.008,0.053 -0.009,0.074 0.006,0.007c0.047,-0.202 0.093,-0.424 0.037,-0.63c-0.098,-0.363 -0.207,-0.631 -0.468,-0.886c-0.381,-0.372 -0.968,-0.538 -1.465,-0.396c-0.357,0.103 -0.756,0.325 -1.025,0.617c-0.376,0.411 -0.506,0.951 -0.545,1.524c-0.066,0.969 0.754,1.686 1.543,1.487" style="fill:#30082c;fill-rule:nonzero;"/><path d="M419.598,262.841c0.581,1.185 2.391,0.885 2.387,-0.634c-0.006,-1.718 0.009,-3.414 0.051,-5.133c0.043,-1.742 -1.329,-3.126 -2.825,-2.721c-1.473,0.398 -2.233,2.344 -1.567,3.886c0.654,1.515 1.235,3.135 1.954,4.602" style="fill:#30082c;fill-rule:nonzero;"/><path d="M423.006,264.443c0.113,0.256 0.341,0.48 0.509,0.689c0.081,0.1 0.216,0.104 0.306,0.014c0.155,-0.157 0.354,-0.283 0.5,-0.447c0.193,-0.214 0.295,-0.525 0.434,-0.784c0.375,-0.699 0.74,-1.167 0.845,-2.014c0.195,-1.589 -1.818,-2.181 -2.506,-0.908c-0.435,0.804 -0.353,1.65 -0.257,2.544c0.031,0.295 0.051,0.641 0.169,0.906" style="fill:#30082c;fill-rule:nonzero;"/><path d="M424.492,268.766c0.001,1.059 0.149,1.771 0.813,2.416c0.022,0.099 0.042,0.198 0.066,0.297c0.069,0.297 0.438,0.408 0.589,0.116c0.039,-0.079 0.083,-0.157 0.125,-0.235c0.697,-0.224 1.049,-0.665 1.526,-1.328c0.631,-0.877 1.096,-1.602 0.843,-2.825c-0.283,-1.368 -1.557,-1.992 -2.641,-1.389c-1.032,0.576 -1.321,1.723 -1.321,2.948" style="fill:#30082c;fill-rule:nonzero;"/><path d="M426.399,274.914c-0.176,0.471 -0.234,0.974 -0.374,1.459c-0.141,0.493 -0.311,0.972 -0.44,1.47c-0.246,0.949 -0.39,1.869 -0.443,2.853c-0.021,0.413 0.45,0.561 0.646,0.234c0.449,-0.747 0.902,-1.505 1.383,-2.224c0.218,-0.324 0.445,-0.682 0.701,-0.966c0.327,-0.364 0.716,-0.6 1.066,-0.947c1.843,-1.826 -1.444,-4.814 -2.539,-1.879" style="fill:#30082c;fill-rule:nonzero;"/><path d="M427.266,281.457c-1.163,2.398 -1.925,4.856 -1.887,7.596c0.004,0.303 0.329,0.538 0.541,0.29c1.431,-1.677 2.82,-3.391 4.338,-4.965c-0.006,-0.004 -0.01,-0.006 -0.016,-0.009c0.118,-0.133 0.235,-0.276 0.348,-0.443c1.583,-2.346 -2.055,-5.085 -3.324,-2.469" style="fill:#30082c;fill-rule:nonzero;"/><path d="M430.498,290.016c-0.315,-1.281 -1.236,-1.856 -2.354,-1.7l-0.377,0.053c-1.105,0.154 -1.704,1.458 -1.858,2.565c-0.38,2.73 -1.066,5.379 -1.364,8.133c-0.028,0.257 0.283,0.34 0.397,0.144c1.234,-2.118 2.552,-4.347 4.425,-5.754c0.852,-0.642 1.528,-1.82 1.227,-3.047c-0.032,-0.13 -0.064,-0.262 -0.096,-0.394" style="fill:#30082c;fill-rule:nonzero;"/><path d="M413.842,272.589c0.196,0.143 0.402,0.267 0.615,0.372c0.385,0.204 0.416,0.224 0.09,0.058c0.231,0.224 0.445,0.474 0.66,0.717c0.469,0.53 0.936,1.059 1.391,1.607c0.682,0.823 1.91,1.993 2.783,0.747c0.746,-1.065 0.248,-2.603 -0.078,-3.737c-0.394,-1.372 -0.974,-2.667 -1.465,-3.99c-0.711,-1.918 -3.075,-2.169 -4.331,-0.842c-1.279,1.353 -1.222,4.035 0.335,5.068" style="fill:#30082c;fill-rule:nonzero;"/><path d="M420.565,290.952c-0.219,-0.636 -0.329,-1.305 -0.542,-1.942c-0.093,-0.278 -0.19,-0.558 -0.292,-0.831c-0.21,-0.561 -0.507,-0.916 -0.911,-1.3c-0.658,-0.624 -1.738,-0.271 -2.242,0.415c-0.563,0.766 -0.549,1.869 0.016,2.619c0.844,1.119 2.333,1.229 3.482,1.708c0.363,0.15 0.61,-0.317 0.489,-0.669" style="fill:#30082c;fill-rule:nonzero;"/><path d="M418.208,301.57c0.437,0.245 0.863,0.239 1.252,-0.13c0.604,-0.573 0.682,-1.547 0.649,-2.384c-0.04,-0.965 -0.084,-2.011 -0.501,-2.863c-0.494,-1.007 -1.598,-1.449 -2.516,-0.886c-0.978,0.601 -1.161,1.833 -0.802,2.921c0.204,0.613 0.622,1.154 0.879,1.75c0.256,0.596 0.493,1.287 1.039,1.592" style="fill:#30082c;fill-rule:nonzero;"/><path d="M417.115,305.769c-0.045,-0.165 -0.085,-0.355 -0.169,-0.498c-0.225,-0.384 -0.464,-0.641 -0.873,-0.723c-0.418,-0.084 -0.718,0.072 -1.057,0.348c-0.117,0.096 -0.226,0.259 -0.3,0.401c-0.306,0.601 -0.274,1.339 0.124,1.861c0.393,0.516 0.988,0.833 1.589,0.696c0.258,-0.058 0.428,-0.389 0.372,-0.676c-0.004,-0.026 -0.006,-0.033 -0.009,-0.044c0.275,-0.362 0.45,-0.897 0.323,-1.365" style="fill:#30082c;fill-rule:nonzero;"/><path d="M707.108,316.869c-0.066,0.561 0.618,0.612 0.79,0.159c0.626,-1.656 1.318,-3.262 1.97,-4.903c0.665,-1.672 1.387,-3.23 0.449,-4.918c-0.767,-1.378 -2.394,-1.577 -3.266,-0.143c-0.972,1.597 -0.457,2.893 -0.133,4.623c0.331,1.771 0.399,3.376 0.189,5.182" style="fill:#30082c;fill-rule:nonzero;"/><path d="M709.652,317.724c-0.333,1.384 -0.58,2.874 -1.069,4.194c-0.055,0.146 0.125,0.267 0.219,0.163c1.834,-2.061 4.359,-3.931 5.536,-6.637c1.392,-3.203 -2.633,-5.409 -3.815,-2.074c-0.495,1.397 -0.523,2.909 -0.871,4.354" style="fill:#30082c;fill-rule:nonzero;"/><path d="M713.624,317.975c-1.564,0.792 -1.915,2.851 -2.419,4.569c-0.513,1.752 -0.867,3.57 -1.343,5.34c-0.067,0.251 0.184,0.409 0.35,0.259c1.33,-1.198 2.733,-2.389 3.869,-3.833c1.204,-1.531 2.408,-2.792 2.107,-4.988c-0.193,-1.401 -1.571,-1.851 -2.564,-1.347" style="fill:#30082c;fill-rule:nonzero;"/><path d="M702.217,323.739c0.762,1.101 1.089,2.43 1.343,3.793c0.099,0.536 0.859,0.48 0.855,-0.096c-0.013,-1.511 -0.188,-3.008 -0.282,-4.513c-0.095,-1.512 -0.212,-2.974 -0.761,-4.365c-0.487,-1.236 -1.764,-1.424 -2.745,-0.966c-0.345,0.16 -0.539,0.499 -0.768,0.812c-0.579,0.788 -0.36,2.17 0.189,2.866c0.683,0.864 1.532,1.547 2.169,2.469" style="fill:#30082c;fill-rule:nonzero;"/><path d="M697.464,330.625c0.986,0.835 1.951,1.55 2.86,2.506c0.864,0.907 1.814,1.801 2.823,2.477c0.391,0.261 0.82,-0.03 0.879,-0.53c0.395,-3.314 -1.97,-6.831 -4.337,-8.406c-2.259,-1.506 -4.312,2.184 -2.225,3.953" style="fill:#30082c;fill-rule:nonzero;"/></g></g></svg>